<svg id="eimFw07pSdx1" xmlns="http://www.w3.org/2000/svg" xmlns:xlink="http://www.w3.org/1999/xlink" viewBox="0 0 1681.91 1353.2" shape-rendering="geometricPrecision" text-rendering="geometricPrecision"><g data-project="board" transform="matrix(3.447931 0 0 3.399711-1223.055051 66.335782)"><path d="M605,370.68c11.86-27.47,26.47-53.6,40-80.26c6.69-13.23,13.11-26.61,18.78-40.32c2.94-7.11,5.56-14.36,8.56-21.45c2.840217-6.565433,6.041784-12.968567,9.59-19.18c7.44-13.28,15.6-26.55,18.82-41.62.4-1.88-2.49-2.69-2.89-.8-2.87,13.41-9.73,25.37-16.41,37.18-3.4,6-6.78,12-9.66,18.27-3.19,6.93-5.83,14.08-8.63,21.17-10.95,27.7-25.25,53.9-38.91,80.32-7.69,14.85-15.18,29.82-21.81,45.17-.76,1.76,1.82,3.29,2.59,1.52Z" transform="translate(-209.67-42.58)"/><path d="M702.6,57.67c5.19,19.9,2.74,40.59-.13,60.65-1.44,10.06-3,20.11-3.88,30.24-.853273,10.600509-1.117013,21.240234-.79,31.87.51,21.41,2.53,42.75,2.83,64.16.3,21.21-.73,42.41-1.37,63.61s-.9,42.34,1,63.43q.35,4,.8,7.9c.21,1.9,3.21,1.92,3,0-2.4-21.14-2.5-42.45-2-63.7s1.66-42.61,1.65-63.93-1.84-42.74-2.66-64.13c-.41-10.62-.53-21.27,0-31.89s2-20.89,3.5-31.28c2.89-19.92,6-40.28,2.54-60.34-.43-2.49-1-5-1.61-7.39-.27357-.733157-1.061916-1.135839-1.816273-.927741s-1.224745.958018-1.083727,1.727741Z" transform="translate(-209.67-42.58)"/><path d="M710.17,293q-1.67,34.5-1.13,69.08.15,9.69.48,19.38c.06,1.93,3.06,1.94,3,0q-1.15-34.53-.11-69.09.29-9.69.76-19.37c.1-1.93-2.9-1.93-3,0Z" transform="translate(-209.67-42.58)"/><path d="M710.43,291.58c4.285647-1.126074,8.797042-1.063848,13.05.18c1.86.55,2.65-2.35.8-2.89-4.776465-1.38868-9.840858-1.450904-14.65-.18-.77497.23946-1.219199,1.051595-1.002804,1.83332s1.015012,1.249819,1.802804,1.05668Z" transform="translate(-209.67-42.58)"/><path d="M726.69,44q-3,23.79-3.72,47.79c-.44,15.78.33,31.54.16,47.31-.32,31.34-4.15,62.53-4.38,93.87-.07,8.7.15,17.4.8,26.08q.5,6.49,1.33,13c.27,2.06.56,4.11.89,6.15.17,1.12.36,2.24.56,3.35.08.47.2,1,.25,1.43.024443.215977.024443.434023,0,.65c1.14-.41,1.48,0,1,1.25c1.47-1.26-.66-3.37-2.12-2.12-2.45,2.09,2.41,5.65,3.85,2.11.64-1.56-.06-3.51-.33-5.07q-.52-3.11-1-6.23c-1.13-8.08-1.78-16.22-2.1-24.37-.66-16.5,0-33,1-49.47s2.29-32.92,2.85-49.42-.24-33.21-.08-49.84c.171244-16.813187,1.219334-33.605999,3.14-50.31.24-2,.49-4.09.75-6.13s-2.75-1.89-3,0Z" transform="translate(-209.67-42.58)"/><path d="M706.55,60.54c-.674536-4.698687-.566407-9.476639.32-14.14l-1.44,1.11c17.85-1,35.73.46,53.42,2.89s35.32,5.6,52.95,8.6c35.31,6,70.64,11.89,105.88,18.26q29.76,5.37,59.43,11.25c1.88.38,2.69-2.51.8-2.89q-26.49-5.28-53.06-10.1t-53.18-9.39q-26.74-4.6-53.51-9.08c-17.64-3-35.25-6.14-52.94-8.75s-35.33-4.48-53.12-4.06c-2.22,0-4.45.14-6.67.27-.673701.004801-1.263858.452507-1.45,1.1-.985766,5.188524-1.093934,10.505678-.32,15.73.28,1.91,3.17,1.1,2.89-.8Z" transform="translate(-209.67-42.58)"/><path d="M978.11,85.1c-1.63,28.77-2.25,57.59-2.46,86.41s-.07,57.49,0,86.23l.09,48.61l1.9-1.45c-14.63-5.53-30.5-3.19-45.7-2.42-16.67.85-33.25-1.34-49.82-2.85q-50.58-4.62-101.38-6.27c-18.83-.61-37.66-.85-56.5-.93-.828427,0-1.5.671573-1.5,1.5s.671573,1.5,1.5,1.5c33.58.15,67.12,1,100.65,2.93q25.35,1.47,50.65,3.68c16.53,1.45,33.13,3.82,49.75,3.66c17.11-.17,35-4.15,51.55,2.1.451888.12082.934255.025394,1.306102-.258383s.591184-.723864.593898-1.191617q-.08-43.26-.15-86.53c-.05-28.73,0-57.47.64-86.2.39-16.18,1-32.36,1.9-48.52.11-1.93-2.89-1.92-3,0Z" transform="translate(-209.67-42.58)"/><path d="M796.9,296c-1.66,10.72-.44,21.49.7,32.2.58,5.38,1.12,10.77,1.22,16.18.05097,5.36424-.404382,10.72132-1.36,16-1,5.81-2,11.91.23,17.57.69,1.78,3.59,1,2.9-.8-1.92-4.94-1.22-10.2-.36-15.29.977326-5.168424,1.512595-10.41071,1.6-15.67c0-10.53-1.81-20.95-2.51-31.44-.506326-5.999283-.345341-12.036228.48-18c.29-1.88-2.6-2.7-2.9-.79Z" transform="translate(-209.67-42.58)"/><path d="M881.89,301.2c-2.89,9.8-5.72,19.8-5.76,30.12c0,5.28.48,10.56.88,15.83l1.2,15.87l1.37,18.11c.14,1.91,3.14,1.93,3,0l-2.39-31.5c-.39-5.19-.88-10.39-1-15.59-.149851-5.181593.279477-10.363713,1.28-15.45c1.1-5.61,2.72-11.11,4.34-16.59.55-1.86-2.34-2.65-2.89-.8Z" transform="translate(-209.67-42.58)"/><path d="M960,304.63c-2.27,10.13-4.35,20.27-3.65,30.7.34,5.16,1.13,10.28,1.76,15.41.648114,5.205173.982053,10.444664,1,15.69c0,6-.34,12.07-.69,18.09-.1,1.93,2.9,1.93,3,0c.6-10.45,1.13-20.93,0-31.37-1.1-10.24-2.91-20.26-1.72-30.58.76986-5.767622,1.851443-11.489331,3.24-17.14.42-1.88-2.47-2.69-2.9-.8Z" transform="translate(-209.67-42.58)"/><path d="M861.54,374.79c5.37-10,10.85-20,15.78-30.21.83-1.73-1.75-3.25-2.59-1.51-4.93,10.24-10.41,20.2-15.78,30.21-.91,1.7,1.67,3.22,2.59,1.51Z" transform="translate(-209.67-42.58)"/><path d="M888.29,330.21c.82-4.51,3.14-8.41,5.74-12.11c1.3-1.84,2.66-3.64,4-5.47.69-1,1.37-1.93,2-2.93s1.13-2,1.81-2.95l-.9.69.26-.09-1.69-.69.09.13-.15-1.16-.05.16l1.45-1.1h-.12c-1.93-.06-1.93,2.94,0,3h.12c.671478-.011281,1.258217-.456394,1.45-1.1.183145-.558963.054877-1.173157-.33667-1.612102s-.987159-.636259-1.56333-.517898c-1.22.42-1.63,1.59-2.27,2.63s-1.34,2.09-2.06,3.11c-1.43,2.05-2.95,4-4.4,6.08-2.82,4-5.38,8.26-6.26,13.13-.35,1.89,2.54,2.7,2.89.8Z" transform="translate(-209.67-42.58)"/><path d="M806.27,332c.926863-3.107913,2.272555-6.075163,4-8.82c1.69-2.67,3.63-5.18,5.33-7.85c3.323068-5.229143,5.828582-10.934837,7.43-16.92h-2.89l.4,1.09c.65,1.8,3.55,1,2.89-.8l-.4-1.09c-.193051-.636509-.779859-1.071736-1.445-1.071736s-1.251949.435227-1.445,1.071736c-1.61626,6.037091-4.188829,11.776417-7.62,17-1.74,2.64-3.69,5.16-5.33,7.88-1.641648,2.740672-2.931789,5.677086-3.84,8.74-.56,1.85,2.34,2.64,2.89.8Z" transform="translate(-209.67-42.58)"/><path d="M791.26,350.93c-2.740056,7.651775-6.045855,15.088986-9.89,22.25-.91,1.7,1.68,3.22,2.59,1.51c3.960395-7.404308,7.366396-15.092044,10.19-23c.65-1.82-2.24-2.6-2.89-.8Z" transform="translate(-209.67-42.58)"/><path d="M716.11,342.06c1.43-4.32,3.87-8.18,5.8-12.28c1.689673-3.704163,3.142593-7.511814,4.35-11.4c2.56-7.81,4.87-15.78,9.76-22.51c1.13-1.56-1.47-3.06-2.59-1.51-4.95,6.81-7.36,14.92-9.93,22.82-1.22202,3.997175-2.715492,7.906263-4.47,11.7-2,4.11-4.37,8-5.81,12.38-.61,1.84,2.29,2.63,2.89.8Z" transform="translate(-209.67-42.58)"/><path d="M698.6,364.51c.504867-.103981.940403-.420561,1.195112-.868697s.303867-.984324.134888-1.471303c-.17061-.425556-.504964-.764776-.928011-.941516s-.899348-.176194-1.321989.001516c-1,.4-1.07,1.65-1.26,2.57s-.41,1.91-.61,2.87q-1.18,5.65-2.32,11.33c-.20514.7837.231963,1.592341,1,1.85.799644.211696,1.621771-.254917,1.85-1.05q1.58-7.86,3.24-15.71l-.39.66.07-.09-1.06.44h.13l-.76-.2.12.05-.54-.54.06.11-.15-1.15v.16l.38-.66-.13.11.66-.38h-.17c-1.88.46-1.09,3.35.79,2.89Z" transform="translate(-209.67-42.58)"/><path d="M882.57,304.48c.88,9.92-.93,19.75-2.13,29.57-.65784,4.938922-.971929,9.917563-.94,14.9.07,5.05.52,10.08.85,15.12.478884,5.655756.49895,11.341005.06,17-.18,1.92,2.82,1.91,3,0c1-10.07-.54-20.12-.87-30.19s1.44-19.81,2.56-29.73c.716111-5.533484.873571-11.124985.47-16.69-.17-1.91-3.17-1.93-3,0Z" transform="translate(-209.67-42.58)"/><path d="M704.34,376.23c-.932243-.233761-1.918729.039905-2.597306.720532s-.949266,1.667935-.712694,2.599468c.191783.643606.778522,1.088719,1.45,1.1l4.61.05c.828427,0,1.5-.671573,1.5-1.5s-.671573-1.5-1.5-1.5h-1.21c-.823924.010772-1.489228.676076-1.5,1.5.006642.396408.163966.775415.44,1.06.297385.255929.668792.410098,1.06.44c1.066078.115913,2.144593.013845,3.17-.3.574671-.161603.998817-.648585,1.08-1.24.071443-.597359-.209233-1.182101-.72-1.5-1.084238-.735224-2.451458-.91678-3.69-.49-1.344687.405862-2.405521,1.444284-2.84,2.78-.173468.52648-.042442,1.105711.34073,1.506274s.956021.557156,1.489677.407213.941118-.581974,1.059593-1.123487c.02679-.042407.043864-.090216.05-.14s-.16.34-.07.16.09-.17.15-.25.06-.08.08-.12-.24.27-.1.13l.2-.21.11-.09c0,0-.3.21-.13.1l.25-.16.26-.13c0,0-.35.13-.16.07l.18-.06.28-.08h.15c.16,0-.35,0-.18,0h.29c.08,0,.41,0,.13,0s0,0,.12,0s.18.06.27.09-.29-.16-.16-.07l.13.07c.096973.05414.190487.114256.28.18l.36-2.74-.66.17c-.111265.00685-.2217.023583-.33.05.2,0,.24,0,.12,0h-.17c-.445541.044846-.894459.044846-1.34,0v3h1.21v-3l-4.61-.05l1.45,1.11c-.004269-.049909-.004269-.100091,0-.15v.24c0-.26-.08.35,0,.11s-.17.3,0,.07-.27.27,0,0-.18.12-.06,0-.21.07-.08,0c.31-.09-.25,0-.1,0s0,0-.21,0h.15c.800813.218152,1.626848-.254187,1.845-1.055s-.254187-1.626848-1.055-1.845Z" transform="translate(-209.67-42.58)"/><path d="M801.23,376.11l-8.32,1c-.738398.02462-1.355271.570154-1.47,1.3-.099457.738705.35498,1.439471,1.07,1.65c1.795522.57203,3.657798.908181,5.54,1v-3c-.702765.03999-1.407235.03999-2.11,0l-1-.1c.26,0-.17,0-.22,0l-.62-.11-.39,2.95l3.52-.23l1.72-.11h.31c.25,0,.14.08,0,0-.24147-.122252-.429953-.328517-.53-.58-.107795-.425699.074747-.871912.45-1.1-.714741.41733-.956393,1.334712-.54,2.05.43418.692207,1.331151.928482,2.05.54.480169-.268716.828417-.723389.962761-1.256982s.042916-1.098965-.252761-1.563018c-.582937-.810635-1.574637-1.221261-2.56-1.06l-5.16.33c-.745371.011781-1.372197.562372-1.48,1.3-.106717.741164.356957,1.445263,1.08,1.64c1.56454.324505,3.164451.445507,4.76.36.828427,0,1.5-.671573,1.5-1.5s-.671573-1.5-1.5-1.5l-1.23-.1h-.3-.06l-.69-.12c-.832947-.15574-1.654728-.366196-2.46-.63l-.4,2.94l8.32-1c.81956-.021025,1.478975-.68044,1.5-1.5c0-.73-.67-1.6-1.5-1.5Z" transform="translate(-209.67-42.58)"/><path d="M882,382.61h4.13c.828427,0,1.5-.671573,1.5-1.5s-.671573-1.5-1.5-1.5h-5.13v3h4.49c.828427,0,1.5-.671573,1.5-1.5s-.671573-1.5-1.5-1.5h-4.49c-.828427,0-1.5.671573-1.5,1.5s.671573,1.5,1.5,1.5h5.17v-3h-4.17c-.828427,0-1.5.671573-1.5,1.5s.671573,1.5,1.5,1.5Z" transform="translate(-209.67-42.58)"/><path d="M957.48,380.92l-1,.46c-.581932.350619-.862952,1.042987-.69,1.7.194518.641708.779614,1.085573,1.45,1.1l8-.44c.828427,0,1.5-.671573,1.5-1.5s-.671573-1.5-1.5-1.5l-6.27-.36v3c.615847-.044974,1.234153-.044974,1.85,0h.46c.32,0-.13,0,.21,0l.91.19c.653441.165779,1.337614-.121673,1.676573-.704404s.25058-1.319555-.216573-1.805596c-1.363142-1.368917-3.3603-1.893075-5.22-1.37-.770068.249255-1.209735,1.058243-1,1.84.232694.791555,1.051095,1.256053,1.85,1.05.151651-.055507.309467-.092443.47-.11-.41,0,.12,0,.2,0c.119521-.015165.240479-.015165.36,0-.2,0-.22,0-.05,0h.24c.153535.042813.3039.096276.45.16-.24-.1,0,0,.08.05.139223.07725.272881.164128.4.26-.29-.22.1.11.15.16l1.46-2.5c-1.382908-.337805-2.810891-.452584-4.23-.34-.828427,0-1.5.671573-1.5,1.5s.671573,1.5,1.5,1.5l6.27.36v-3l-8,.44L958,384l1-.45c.707728-.42809.943247-1.343504.53-2.06-.430824-.664496-1.293275-.897358-2-.54Z" transform="translate(-209.67-42.58)"/><path d="M730,100.13c16.24.46,32.53,1.19,48.58,3.84s31.59,8,47.68,10.67s32.42,3.33,48.65,4.73s32.3,3.5,48.29,6.32s31.8,6.31,47.48,10.52q2.93.78,5.83,1.6c.769723.141018,1.519642-.329369,1.727741-1.083727s-.194584-1.542703-.927741-1.816273q-23.53-6.57-47.58-11.08t-48.29-6.83c-16.26-1.59-32.64-2.11-48.83-4.37-8.110505-1.181433-16.149451-2.810588-24.08-4.88-7.94-2-15.85-4.16-23.89-5.7-16-3.08-32.31-4.13-48.57-4.69-2-.07-4-.14-6.05-.19s-1.93,2.94,0,3Z" transform="translate(-209.67-42.58)"/><path d="M726.55,168.42c32.935519-1.209561,65.906005,1.103569,98.35,6.9c16,2.87,31.78,6.84,47.75,9.94c8,1.54,16,2.85,24.05,3.65s16.35,1,24.54,1.27c8.20217.154189,16.384369.86583,24.49,2.13c7.81,1.36,15.54,3.41,23.48,3.88c1.958313.115002,3.921687.115002,5.88,0c1.92-.1,1.93-3.1,0-3-8,.45-15.86-1.3-23.67-2.86-7.951618-1.554642-16.006564-2.523909-24.1-2.9-8.19-.41-16.39-.48-24.58-1-8.150817-.591126-16.263027-1.629355-24.3-3.11-16-2.87-31.74-6.9-47.7-9.94-32.317756-6.166814-65.197961-8.892026-98.09-8.13-2,.05-4.07.11-6.1.19s-1.93,3.07,0,3Z" transform="translate(-209.67-42.58)"/><path d="M726.27,224c8.179308-.91133,16.400308-1.398649,24.63-1.46c8.220951.206786,16.423833.874501,24.57,2c8.17,1,16.33,2,24.54,2.59c8,.61,16.08,1,24.13,1.41c16.42.79,32.86,1.45,49.19,3.41c16.14,1.94,32.11,5.05,48.26,6.88c18.46,2.1,37,3.88,55.44,5.8c1.92.2,1.9-2.8,0-3-16.5-1.71-33-3.38-49.51-5.14-8.24-.89-16.46-1.89-24.65-3.14-7.93-1.22-15.83-2.56-23.78-3.65-32.41-4.45-65.27-3.49-97.74-7.43-9.14-1.11-18.28-2.37-27.49-2.68s-18.42.54-27.59,1.4c-1.9.18-1.92,3.18,0,3Z" transform="translate(-209.67-42.58)"/></g></svg>