<svg id="eaFbDzeVAQg1" xmlns="http://www.w3.org/2000/svg" xmlns:xlink="http://www.w3.org/1999/xlink" viewBox="0 0 1920 1080" shape-rendering="geometricPrecision" text-rendering="geometricPrecision"><style><![CDATA[#eaFbDzeVAQg2_to {animation: eaFbDzeVAQg2_to__to 5000ms linear infinite normal forwards}@keyframes eaFbDzeVAQg2_to__to { 0% {transform: translate(912.912459px,589.536462px)} 60% {transform: translate(951.77551px,399.445706px)} 100% {transform: translate(951.77551px,399.445706px)}} #eaFbDzeVAQg2_tr {animation: eaFbDzeVAQg2_tr__tr 5000ms linear infinite normal forwards}@keyframes eaFbDzeVAQg2_tr__tr { 0% {transform: rotate(0deg)} 60% {transform: rotate(0deg)} 100% {transform: rotate(0deg)}} #eaFbDzeVAQg2_ts {animation: eaFbDzeVAQg2_ts__ts 5000ms linear infinite normal forwards}@keyframes eaFbDzeVAQg2_ts__ts { 0% {transform: scale(1.012072,0.963202)} 60% {transform: scale(-1.012072,0.963202)} 100% {transform: scale(-1.012072,0.963202)}}]]></style><g id="eaFbDzeVAQg2_to" transform="translate(912.912459,589.536462)"><g id="eaFbDzeVAQg2_tr" transform="rotate(0)"><g id="eaFbDzeVAQg2_ts" transform="scale(1.012072,0.963202)"><g transform="translate(-896.367247,-507.471985)"><g><g><path d="M902.1,472c-3.2-1-6.6-1.3-9.9-1.7-4-.5-8-1-12-1.7-3.7-.7-6.7-2-9.7-4.3-2.7-2.1-5.3-4.2-8.1-6.2-3.2-2.3-6-5.1-8.9-7.7-2.7-2.4-5.6-4.5-8.1-7.1-2.4-2.6-4.5-5.4-6.6-8.3-2.1-3-4.2-6.3-7.2-8.5-2.8-2.2-6.5-2.9-9.4-5-2.7-1.9-4.8-4.7-6.9-7.2-2.4-2.9-5.2-5.5-7.8-8.2-2.8-2.9-5.8-5.8-8.7-8.6-2.7-2.6-4.9-5.6-7-8.7-1-1.5-2.1-2.9-3.1-4.4-1.1-1.5-1.7-3.3-2.5-5-1.4-3.3-3.4-5.6-6.3-7.8-1.3-1-2.7-2-3.7-3.3-1.1-1.4-1.8-3.2-2.2-4.9-.9-3.3-1.6-6.5-3.4-9.5-2-3.4-4.1-6.7-6-10.1-4-7.3-5.9-15.2-9.1-22.8-1.5-3.5-3.3-6.9-4.7-10.4-1.3-3.6-2.1-7.3-3.1-11-2.1-7.5-4.5-15.2-4.6-23.1-.1-3.8.5-7.7.7-11.6.2-3.8.3-7.7.7-11.5.4-3.9,1.2-7.7,2.5-11.3c1.4-3.8,3.4-7.5,5.5-11c1.9-3.3,3.9-6.8,6.5-9.7c2.2-2.4,4.8-4.2,7.7-5.8s5.9-2.9,8.8-4.2c3.2-1.4,6.2-3.1,9.4-4.6c7.2-3.3,14.9-5.4,22.6-7.2c3.8-.9,7.7-1.7,11.5-2.7c4.2-1,8-2.1,12.3-1.4c4,.6,7.8,2.1,11.6,3.5c3.9,1.5,7.9,2.9,11.7,4.5c7.5,3.1,14.5,6.9,21.7,10.5c6.6,3.2,13.5,5.7,20.9,5.8c7.3.1,14.6-1.5,21.6-3.7c14.2-4.5,27.5-12.2,42.2-15.5c7.7-1.7,15.7-2,23.5-1c3.7.5,7.5,1.2,10.9,2.8c3.2,1.5,6.2,3.5,9.3,5.4c6.1,3.7,12.9,5.9,18.8,9.9c3.1,2.1,5.9,4.6,7.9,7.8c1.9,3.1,3.3,6.5,5.5,9.3c1,1.3,2.2,2.4,3.3,3.7c1.2,1.5,2.1,3.2,2.9,4.9c1.6,3.4,2.9,6.9,4,10.5c2.2,7.1,3.7,14.5,4.5,21.9.4,3.6,0,7.1-.9,10.7-1,3.5-2.2,6.9-3.2,10.5-2.2,7.9-4.1,16-6.9,23.7-5.4,14.9-11,30-19,43.8-8.3,14.2-18.6,27.4-29.8,39.4-2.7,2.8-5.4,5.6-8.3,8.2-2.8,2.5-5.5,5-7.8,8-2.4,3.2-4.3,6.7-6.9,9.8-2.4,2.8-5.2,5.3-8.2,7.5-3.1,2.2-6.2,4.3-9.2,6.7-3.1,2.4-6,5-8.9,7.5-5.9,5.2-11.8,10.6-18.4,14.9-3.2,2.1-6.4,3.4-10.1,4s-7.4.7-11.1,1.7c-1.9.5-1.1,3.4.8,2.9c3.8-1,7.7-1.1,11.6-1.7c3.9-.7,7.3-2.2,10.6-4.4c6.7-4.5,12.7-9.9,18.8-15.2c2.9-2.6,5.9-5.1,8.9-7.5c3.2-2.5,6.6-4.7,9.9-7.2c3-2.3,5.7-4.8,8.1-7.7c2.5-3.1,4.5-6.7,7-9.9c2.4-3.1,5.5-5.7,8.4-8.3c2.9-2.7,5.6-5.5,8.2-8.4c5.7-6.2,11.1-12.7,16.1-19.4c5-6.6,9.7-13.5,13.8-20.8c4-7,7.3-14.4,10.4-21.8c3.1-7.5,6.1-15.2,8.7-22.9c2.8-8,4.5-16.2,6.9-24.3c1-3.5,2.4-7,3.1-10.6.8-3.6.7-7.2.3-10.9-.9-7.6-2.4-15.2-4.9-22.5-1.1-3.5-2.5-6.9-4.1-10.1-.8-1.7-1.6-3.2-2.8-4.7-1.2-1.4-2.6-2.7-3.7-4.1-2.2-3-3.5-6.6-5.7-9.7-2-2.9-4.7-5.3-7.6-7.3-5.9-4.1-12.9-6.3-19-10-3.2-1.9-6.3-4.1-9.7-5.6-3.4-1.6-7-2.4-10.7-3-7.9-1.2-16-1.1-23.9.4-7.5,1.4-14.7,4.2-21.8,7.1-14,5.7-28.4,12.7-43.9,12.4-7.8-.2-14.9-3.3-21.6-6.8-7.5-3.9-15-7.6-22.8-10.7-3.8-1.5-7.6-2.9-11.5-4.3s-7.9-2.6-12.1-2.7c-4-.1-7.7,1.1-11.5,2.1-4,1-8,1.8-12,2.8-7.8,1.9-15.5,4.1-22.7,7.6-3.2,1.5-6.4,3.2-9.6,4.6-3,1.3-5.9,2.7-8.8,4.3-2.8,1.7-5.6,3.7-7.7,6.2-2.5,3-4.6,6.4-6.5,9.8-2,3.5-4,7.1-5.4,10.9-1.4,3.7-2.2,7.6-2.7,11.6-.5,3.8-.6,7.6-.8,11.5-.2,4-.8,8.1-.7,12.1.1,8,2.3,15.7,4.5,23.3c1.1,3.8,1.8,7.8,3.2,11.6c1.3,3.5,3,6.7,4.5,10.1c3.4,7.6,5.2,15.8,9.1,23.2c1.9,3.5,4,6.9,6.1,10.4c1,1.6,1.8,3.2,2.4,5c.5,1.7.9,3.5,1.4,5.2c1,3.3,2.7,6,5.4,8.1c1.4,1.1,2.9,2.1,4.1,3.3c1.4,1.4,2.2,3,2.9,4.8.7,1.5,1.3,3.1,2.2,4.6c1.1,1.7,2.4,3.3,3.5,5c2.1,3.1,4.2,6.1,6.9,8.7c3.1,3,6.1,5.9,9.1,8.9c2.6,2.7,5.4,5.3,7.8,8.2c2.2,2.6,4.3,5.4,7.1,7.4c3,2.2,6.8,2.9,9.6,5.2c3.1,2.5,5.2,6.1,7.5,9.3c2.1,2.9,4.3,5.7,6.8,8.2c2.6,2.6,5.6,4.7,8.3,7.2c2.9,2.6,5.7,5.4,9,7.6c2.9,2,5.4,4.3,8.2,6.3c3,2.2,6.2,3.4,9.9,4c3.8.7,7.8,1.1,11.6,1.7c3.3.4,6.7.6,9.9,1.7c1.8.5,2.6-2.4.8-3v0Z" stroke="#000" stroke-miterlimit="10"/></g></g><g><g><path d="M904.5,472.3c.2,2.5-1.6,4.5-3.3,6.2-1.9,1.9-4,3.6-5.8,5.5-4.4,4.8-5.8,11.9-7.4,18.1-1.9,7.4-4.7,14.7-5.7,22.3-.5,3.9-.4,7.7-.5,11.6c0,4.1-.1,8.2,0,12.3.1,7.5.5,15.2,2.2,22.5c1.6,7,4.4,13.8,7.8,20.2c3.5,6.6,8.2,12.4,12.1,18.8c3.9,6.5,4.9,13.5,5.8,20.9c1,7.7,2.8,15.5,5,22.9c2.1,7.1,4,14.5,3.6,22-.8,13.1-8.5,24.3-15.6,34.9-3.5,5.2-6.9,10.4-9.6,16-3.3,6.9-6.6,13.9-9.3,21-1.3,3.5-2.4,7-3.6,10.6s-2.4,7.1-3.2,10.8c-1.4,7-.2,13.7,2.7,20.1s7.7,11.7,11.4,17.6c3.6,5.7,7,11.6,11.8,16.3c4.4,4.3,9.6,8.1,12.5,13.7c3.5,6.8,4.2,14.8,6,22.1.8,3.4,2.3,6.7,4.1,9.7c1,1.6,3.6.1,2.6-1.5-4.2-6.7-4.6-14.5-6.6-21.9-1.7-6.5-4-12.1-8.7-17-4.6-4.7-9.6-8.6-13.3-14-3.9-5.7-7.2-11.8-11.3-17.3-4.3-5.6-7.8-12.1-8.6-19.3-.8-7.5,2.5-14.8,4.7-21.9c2.3-7.5,5.5-14.7,8.8-21.8c2.8-6,5.8-11.8,9.4-17.4c6.7-10.3,14.4-20.3,17.6-32.4c1.8-6.9,1.8-13.8.5-20.7-1.4-7.6-4.1-14.8-5.7-22.4-.8-3.7-1.5-7.4-2-11.2-.5-3.5-.8-7.1-1.6-10.5-1.6-7.1-5.7-13-9.8-18.9-8.6-12.3-14.6-26-15.9-41.1-.7-8-.6-16.1-.5-24.1c0-4,0-7.9.6-11.8.7-3.9,1.7-7.6,2.8-11.4c1.1-3.7,2.2-7.4,3.1-11.2.9-3.7,1.9-7.3,3.6-10.8c2.4-4.9,7.2-7.5,10.4-11.8c1.3-1.7,2.3-3.8,2.1-6-.4-1.6-3.4-1.6-3.2.3v0Z" stroke="#000" stroke-miterlimit="10"/></g></g><g><g><path d="M911,475.9c-5.1,1.9-13.2-1.3-16.3,4.8-2.3,4.6,3.9,6.8,7.1,7.9c1.1.4,2.2.7,3.3,1.2.5.2.9.4,1.3.7.1.1.5.3.3.2.1.1.5.5.3.3.3-.7.6-1.5.9-2.2-1.8.6-3.8.4-5.7.3-2.2-.1-4.4-.3-6.5.1-1.8.3-3.6,1.3-4.4,3-1.2,2.6-.3,5.7.9,8.2.8,1.6,1.9,3.1,3,4.6c1,1.4,1.7,2.9,2.6,4.4.8,1.3,1.7,2.4,3,3.2c1,.7,2.5,1.3,3.1,2.4.1.2.2.5.2.7c0,0,0-.2,0,.1s.1-.3,0,.1c-.1.3,0-.1,0,0-.1.2-.2.3,0,.1-.1.1-.1.2-.2.2-.2.1.2-.1-.1.1s-.4.2-.4.2c-.3.1-.6.2-.9.3-.7.2-1.2.2-1.9.3-3.5.3-7.1.1-10.7.2-2.3,0-6.2-.1-7.5,2.2-.7,1.3-.2,3,.7,4c1.7,1.8,4.6,2.1,7,2.5c2.7.5,5.2,1.6,7.7,2.7c2.6,1.2,5.6,2.5,7.5,4.7.2.2.4.5.5.7.2.3,0,.1.1.2.1.3.1.2.1.2c0,.1,0,.4,0,.2c0-.1-.2.2,0,0-.3.3,0,.1-.3.4-.1.1-.2.2-.6.4-.3.2-.6.3-.9.4-.8.3-1.6.5-2.4.7-3.5.8-7.1,1-10.7,1.5-.6.1-1.2.1-1.9.3-1.9.4-1.1,3.3.8,2.9.7-.1.6-.1,1.4-.2s1.6-.2,2.4-.3c2-.2,4-.4,6-.7c2.8-.5,7.3-1.1,8.8-3.9c2.2-4.3-4.9-7.9-7.7-9.3-1.5-.7-3-1.4-4.6-2.1-1.2-.5-2.4-1.1-3.7-1.4-2.2-.5-5.1-.4-7-1.7-.2-.2-.5-.6-.6-.6-.1-.1-.1-.4-.1-.3c0-.2,0,.1,0,.1s-.1.1,0,0s.2-.1.3-.1c.3-.2-.2.1.1,0s.5-.2.8-.2c.7-.2,1-.2,1.8-.2c3.5-.2,7,0,10.5-.1c2.6-.1,6.6-.1,8.2-2.6.8-1.2.7-2.7.1-3.9s-1.8-2.1-2.9-2.8c-1.3-.9-2.3-1.5-3.2-2.9s-1.7-3-2.6-4.4c-1-1.5-2-2.9-2.9-4.4-.9-1.6-2.3-4.9-.5-6.4c1.2-1,3.4-.9,4.9-.9c2.2,0,4.3.3,6.5.2.9-.1,1.9-.2,2.8-.5s1.5-1.4.9-2.2c-1-1.5-2.7-2.1-4.3-2.7-1.9-.7-3.8-1.3-5.6-2.1-.7-.3-1.5-.8-2-1.2-.4-.3-.3-.2-.5-.6c0,.1,0-.2,0-.2.5-2,2.7-2.7,4.7-2.8c3.3-.3,6.8.2,9.9-1c1.7-.7,1-3.6-.9-3v0Z" stroke="#000" stroke-miterlimit="10"/></g></g><g><g><path d="M904.4,471.7c-1.2.4-2.4,1.1-3.1,2.2-.6,1-.7,2.2-.5,3.4.4,2.3,2.1,4.3,3.9,5.5c1.9,1.2,4.8,1.9,6.8.6c2-1.4,1.9-3.9,1.1-6-.8-2.4-2.2-4.6-4-6.4-.6-.6-1.6-.6-2.1,0-.6.6-.6,1.5,0,2.1.3.3.5.6.8.9.1.1.1.2.2.2-.2-.3,0,0,0,0c.2.2.3.4.5.6.5.8,1,1.6,1.4,2.5c0,.1.3.7.2.3.1.2.2.4.2.6.1.4.2.9.3,1.3.1.3,0-.4,0,0c0,.1,0,.2,0,.3c0,.2,0,.4,0,.5c0,.3.1-.4,0-.1c0,.1,0,.2-.1.2-.1.3,0-.1,0-.1s-.1.2-.1.3c-.1.2.1-.1.1-.1s-.1.2-.2.2c-.2.2.1,0,.1,0l-.2.1c-.1.1-.3.1,0,0-.1,0-.2.1-.3.1s-.2,0-.3.1c-.2,0-.1,0,.1,0-.1,0-.2,0-.2,0-.2,0-.4,0-.6,0-.1,0-.4-.1,0,0-.1,0-.2,0-.3-.1-.2,0-.4-.1-.6-.2-.1,0-.2-.1-.3-.1.4.1-.1,0-.1-.1-.4-.2-.7-.4-1-.6s.2.2-.1,0c-.1-.1-.2-.1-.3-.2-.2-.2-.4-.4-.6-.5-.2-.2-.3-.3-.4-.5.2.3,0,0,0,0-.1-.1-.1-.2-.2-.3-.1-.2-.2-.4-.3-.6c0-.1-.1-.2-.1-.3-.1-.2-.1-.1,0,.1c0-.1,0-.1-.1-.2-.1-.2-.1-.4-.2-.6c0-.1,0-.2-.1-.3-.1-.3,0,.4,0-.1c0-.1,0-.2,0-.3s0-.1,0-.2c0-.2,0-.1,0,.1c0-.1.1-.5.2-.6-.1.1-.1.3,0,0c.1-.1.1-.2.2-.3-.2.3-.1.1,0,0s.2-.2.3-.3c.2-.2-.3.2,0,0c.1-.1.2-.2.4-.2.1,0,.4-.2.1,0c.2-.1.3-.1.5-.2.8-.2,1.3-1,1-1.8-.4-.7-1.2-1.2-2-.9v0Z" stroke="#000" stroke-miterlimit="10"/></g></g><g><g><path d="M745.4,287.3c-1.3-2-.9-5.2-.9-7.5-.1-3.8.9-7.4,1.5-11.1c1.2-7.9,3.5-15.8,6-23.4c1.3-3.8,2.9-7.4,4.5-11c1.6-3.4,3.1-6.7,5.4-9.7c2.1-2.7,4.3-5.6,6.7-8.1c2.2-2.4,4.8-4.1,7.6-5.6c3.2-1.7,6.1-3.9,9.3-5.8c3.1-1.9,6.6-2.9,10.1-3.8c3.5-.8,7-1.5,10.5-2c4-.6,8-.4,12-.8c3.9-.4,7.8-1.1,11.7-1.5c3.7-.3,7.4-.4,11.1,0c3.7.3,7.4,1.1,10.8,2.5c3.6,1.4,6.9,3.4,10.3,5.2c6.8,3.7,14,6.6,21.4,8.8c7.7,2.2,15.7,2.9,23.7,2.5c3.9-.2,7.8-.5,11.6-1.4c3.6-.9,7.1-2.2,10.5-3.6c7.2-2.9,14.7-5.1,22.1-7.7c14-4.9,29.6-4.2,43.9-1.3c7.2,1.5,13.1,5.4,19.2,9.3c5.4,3.5,12,5.9,15.9,11.3c4.5,6.2,7.1,13.6,9.8,20.7c2.7,7.3,5.3,14.5,6.7,22.2c1.5,7.9,1.5,15.9,1,23.9-.4,8-1.7,15.7-3.8,23.4-2,7.4-4.4,14.8-7.8,21.7-1.7,3.4-3.4,6.9-5.1,10.3-1.8,3.4-4,6.4-6.3,9.5-4.6,6.1-8.4,12.7-12.8,19-4.6,6.5-9.7,12.5-14.4,18.8-2.3,3.1-4.6,6.2-7.1,9.2-2.6,3-5.5,5.8-8.3,8.6-5.5,5.7-10.7,11.5-16.1,17.2-2.7,2.8-5.3,5.7-7.9,8.7-2.4,2.8-4.5,5.8-7,8.6-2.2,2.5-4.6,4.8-7.1,6.9-2.8,2.2-5.8,4.1-8.7,6.1-5.9,4.1-11.5,8.8-18.3,11.3-7.1,2.6-14.9,3.4-22.3,3.5-7.7.1-15.5-1.5-22.6-4.8-3.2-1.5-5.9-3.7-8.8-5.8-3-2.2-6.4-4-9.4-6.2-2.9-2.2-5.1-5.1-7.6-7.7-2.4-2.5-5.2-4.1-8-6.1-3.1-2.1-4.8-5.4-6.9-8.4-2.2-3.1-4.4-6.2-6.9-9.1-5.2-6.1-10.6-11.8-15.2-18.4-2.4-3.3-4.6-6.7-7-10.1-1.1-1.5-2.1-3-3.3-4.4-1.3-1.5-2.7-2.8-4-4.3-4.6-5.6-7.2-12.5-11.7-18.2-2.1-2.6-4.4-5.1-6.4-7.8-2.1-3.1-3.7-6.5-5.4-9.7-3.8-7.1-8.1-13.9-11.3-21.3-1.6-3.6-3.1-7.1-5-10.6-1.8-3.3-3.3-6.8-4.5-10.3s-2.1-7-2.7-10.6c-.7-3.9-1.2-7.8-2.4-11.5-.6-1.8-3.5-1.1-2.9.8c1.2,4,1.7,8.2,2.5,12.4.7,3.8,1.7,7.5,3.1,11.1c1.3,3.7,3,7.2,4.9,10.7c1.8,3.4,3.3,7.1,4.9,10.6c3.4,7.5,7.8,14.5,11.7,21.8c1.7,3.2,3.3,6.4,5.4,9.3c2.2,2.9,4.7,5.5,6.9,8.4c4.4,6,7.1,13.2,12.3,18.6c5.7,6,9.9,13.3,14.8,19.9c4.8,6.5,10.6,12.1,15.6,18.5c2.5,3.1,4.7,6.5,6.9,9.8c1.9,2.9,4.2,4.7,7.1,6.6c3.2,2,5.6,4.5,8.2,7.3c2.5,2.7,5.2,5,8.3,7c3.3,2.1,6.5,4.3,9.7,6.6c3,2.2,6.2,3.8,9.6,5.2c7.3,2.8,15.1,3.9,22.9,3.4c7.6-.5,15.3-1.3,22.4-4.3c6.9-2.9,12.6-7.9,18.7-12c5.8-3.9,11.2-8,15.7-13.4c2.4-2.9,4.6-5.9,7.1-8.7c2.6-3,5.4-5.9,8.1-8.8c5.6-6,11.1-12.1,16.8-17.9c2.9-2.9,5.8-5.8,8.3-9c2.4-3,4.6-6.1,6.9-9.1c5-6.3,10.1-12.6,14.6-19.2c2.3-3.3,4.3-6.8,6.5-10.2c2.1-3.3,4.6-6.3,6.9-9.4c2.2-3.1,4-6.4,5.7-9.8c1.8-3.6,3.7-7.2,5.3-10.9c6.4-14.7,9.9-30.6,10.4-46.5.2-8-.2-15.9-1.9-23.8-1.7-7.7-4.5-15.1-7.3-22.5-2.6-6.9-5.5-14.6-10.6-20.2-4.5-4.9-11.1-7.5-16.5-11.1-6.2-4.1-12.5-7.6-19.9-9s-15-2.2-22.6-2.1c-7.5.2-15.1,1.2-22.2,3.8-3.8,1.4-7.6,2.6-11.4,3.8-3.9,1.2-7.6,2.8-11.4,4.3-3.5,1.4-7.1,2.7-10.9,3.4-4,.8-8.3,1-12.4,1.1-8.3.2-16.3-1.2-24.1-3.8-3.9-1.4-7.9-2.9-11.7-4.7-3.5-1.7-6.9-3.7-10.3-5.5-3.5-1.8-7-3.3-10.8-4.1-3.6-.8-7.3-1.1-11-1.1-8,0-15.8,1.7-23.8,2-3.9.1-7.6.7-11.3,1.4s-7.5,1.4-11.1,2.6c-3.4,1.2-6.4,2.9-9.3,4.9-3,2.1-6.4,3.6-9.4,5.7-2.6,1.8-4.7,3.9-6.6,6.4-2.3,3-4.9,5.7-6.9,8.9-2.1,3.2-3.5,7-5.1,10.5-1.6,3.7-3.1,7.4-4.2,11.3-1.2,4-2.4,8-3.4,12-1,3.9-1.5,7.8-2.2,11.7-.6,3.4-1.1,6.6-1,10c.1,2.5,0,5.5,1.3,7.6.9,1.3,3.5-.2,2.4-1.9v0Z" stroke="#000" stroke-miterlimit="10"/></g></g><g><g><path d="M903.5,473.7c-.5,1.5-.4,3.1-.6,4.7-.1.6-.2,1.3-.5,1.8-.3.7-.7,1.3-.7,2.1c0,1.2.6,2,1.5,2.7.8.6,1.6,1.3,2.4,1.8c1,.6,2.3.8,3.5.6s2.1-1,2.7-2c.6-.9.9-2,1.2-3c.3-1.1.7-2.3.4-3.4-.2-.6-.6-1.1-.9-1.5.2.2,0,0,0,0-.1-.2-.3-.3-.4-.5-.2-.3-.4-.6-.5-.9.1.2-.1-.3-.1-.3-.1-.2-.1-.3-.2-.5-.1-.4-.3-.8-.4-1.1-.4-.8-.9-1.4-1.6-1.9s-1.7-.1-2.1.5c-.4.7-.1,1.6.5,2.1.1,0,.2.2.2.3.1.1.1.2.2.3.1.3.1.2,0,.1.2.5.3,1.1.6,1.6.2.6.5,1.1.9,1.6.1.2.2.3.4.5.1.2.2.3.4.5.1.1-.1-.2,0,.1.1.1.1.2.2.4c0,0-.1-.3-.1-.1.1.2,0-.1,0-.1c0,.1,0,.6,0,.3c0,.3-.1.6-.2.9-.1.4-.2.8-.4,1.3-.1.2-.1.4-.2.5c0,.1-.1.2-.1.3s0,.1,0,0c0,.1-.1.1-.1.2-.1.2-.2.4-.3.5c0,.1-.1.1-.1.2c0,0-.2.3-.1.2.1-.2-.1.1-.1.1-.1.1-.1.1-.2.2.2-.2-.2.1-.3.2.4-.2-.4.1-.2,0c.2,0-.2,0-.2,0-.1,0-.2,0-.3,0c.2,0,0,0-.1,0s-.3-.1-.4-.1c-.5-.1-.1-.1,0,0l-.2-.1c-.3-.2-.5-.3-.8-.5-.1-.1-.3-.2-.4-.3s-.6-.4-.4-.3c-.3-.2-.6-.5-.8-.7l-.3-.3c0,0,.2.3.1.2.3.3-.1.1.1,0c0,0-.1.4,0-.1-.1.2.1-.2.1-.2.1-.3.3-.5.4-.8.4-.8.5-1.7.6-2.6.1-1.4,0-2.8.5-4.1.3-.8-.3-1.6-1-1.8-.6-.9-1.4-.4-1.6.4v0Z" stroke="#000" stroke-miterlimit="10"/></g></g><g><g><path d="M902.5,473.3c-2.5,3.6-6.2,6.2-8.7,9.8-2.4,3.3-3.1,7.8-4.1,11.7-1.3,4.8-2,9.7-2.6,14.6-.6,4.8-1.6,9.5-2.3,14.3s-.8,9.6-.8,14.5c0,5.1.1,10.2.2,15.3.1,2.4.2,4.9.3,7.3.1,2.1.1,4.1.5,6.1.5,2.2,1.4,4.3,1.8,6.5.4,2.4.6,4.7,1.1,7.1.7,3.8,3.6,6,5.6,9.1c2.2,3.6,3.3,7.8,4.7,11.8c1.5,4.2,2.7,8.6,4.2,12.8s3.8,7.8,5.9,11.7c2.2,4.1,3.2,8.4,3.8,13c.6,4.9.9,9.8,1.1,14.7.1,5,.1,10.1,0,15.1c0,4.6.3,9.3-.6,13.8-.4,2.2-1.2,4.2-2,6.2-.9,2.2-1.3,4.5-1.9,6.8-1,4.4-2.6,8.4-4.9,12.3-4.3,7.5-9.9,14.3-12.9,22.5-.8,2.3-1.4,4.6-1.8,7-.4,1.9,2.5,2.7,2.9.8.9-4.6,2.3-8.8,4.6-12.9c2.1-3.8,4.6-7.5,7-11.2c2.3-3.6,4.5-7.3,6.2-11.3c1.8-4.2,2.1-8.8,3.7-13.1c1.5-4.1,2.6-8.1,2.7-12.5.1-5,.1-10,.1-15c0-9.8-.2-19.7-2.1-29.4-.8-4.2-2.9-7.9-5-11.6-2.3-4-4-8-5.3-12.4-1.3-4.2-2.7-8.3-4.1-12.4-1.3-3.9-2.8-7.7-5.4-11-1.1-1.3-2.3-2.5-3-4.1-.9-2-.9-4.4-1.2-6.5-.3-2.3-.7-4.5-1.5-6.7-.8-2.1-1.1-4.2-1.2-6.4-.3-9.9-.7-19.7-.5-29.6.1-4.8,1-9.6,1.8-14.3.8-4.8,1.4-9.6,2.1-14.4.7-4.7,2-9.2,3.2-13.7.5-2,1.2-3.9,2.4-5.5c1.3-1.7,2.9-3.2,4.4-4.8c1.5-1.5,2.9-3.1,4.2-4.9c1-1.2-1.6-2.7-2.6-1.1v0Z" stroke="#000" stroke-miterlimit="10"/></g></g><g><g><path d="M889.1,737.4c-3.6,6-3.9,13.1-5.2,19.9-.7,3.8-1.5,7.5-2,11.3-.5,3.7-.6,7.5-.5,11.2c0,1.7.2,3.4.6,5c.5,1.8,1.3,3.4,2.2,5c1.6,3,3.2,6,5.4,8.7c4.7,5.8,10.3,10.8,16.1,15.5c3.1,2.5,6.6,4.9,9.1,8c2.2,2.7,3.1,6.2,5.8,8.6c1.4,1.3,3.5-.8,2.1-2.1-2.2-2.1-3.1-5-4.8-7.4-1.9-2.8-4.7-4.9-7.3-7-5.5-4.5-11-9-15.8-14.3-2.4-2.6-4.5-5.3-6.2-8.4-1.6-2.8-3.4-5.8-3.8-9-.5-3.4-.2-7.1,0-10.5.2-3.7,1-7.4,1.7-11.1c1.4-7.2,1.5-15.4,5.4-21.9.8-1.6-1.8-3.1-2.8-1.5v0Z" stroke="#000" stroke-miterlimit="10"/></g></g><g><g><path d="M891,541.3c1.6-.8,3.6-.3,5.2-.6c2-.4,4-1,5.8-1.7c2.4-.9,5.7-2.5,3.7-5.5-1.9-2.7-4.8-5.2-7.8-6.6-1.7-.8-3.5-1.3-5.3-1.9-2-.7-4-1.5-5.9-2.5-.4-.2-.7-.4-1-.7-.1,0-.6-.6-.5-.5-.1-.1,0-.1-.1.2c0,.2-.1.1,0,.1.2,0,.2-.2.3-.3c1.3-.8,3-.6,4.4-.5c1.8.1,3.6.2,5.4.1c2-.1,3.9-.4,5.9-.4c1.7,0,3.3,0,4.9-.3c3.1-.4,6.6-2.5,6.2-6.1-.4-3.7-4.8-5.6-7.6-7.3-3.4-2-7-3.6-10.3-5.8-1.3-.9-2.4-1.9-2.8-3.5-.3-1-.6-2.6.1-3.5.4-.5,1.2-.5,1.8-.6c1-.2,2-.3,3-.4c2-.2,4-.3,6-.4c1.9-.1,3.8-.1,5.6.2c1.4.2,3,.6,4.4.1c2.6-.8,3.2-3.6,1.2-5.3-1.6-1.4-3.9-2.2-6-2.6-2.8-.5-6-.8-8.5-2.2-.5-.3-.9-.6-1.3-1-.2-.2-.3-.8-.5-.3.2-.5,1.8-.7,2.3-.8c1.2-.2,2.4-.1,3.5-.1c2.2,0,4.3-.3,6.4-.5c1.6-.2,3.4-.3,4.7-1.5.9-.8,1.4-2.1.9-3.3-.6-1.3-2.1-1.7-3.4-1.8-1.9-.2-1.9,2.8,0,3c.1,0,.7.2.8.2v-.4c-.1-.1.1,0-.2.1s-.5.3-.8.4c-1.9.6-4.1.6-6,.8-2.6.2-5.4-.1-7.9.6-2.2.6-4,2.4-2.7,4.8c1.3,2.6,4.5,3.6,7.1,4.2c2.3.6,4.8.7,7,1.5.9.3,1.9.7,2.6,1.4.1.1.3.3.3.3.6.1-.1.2,0,.1v-.4c0,0-.6.3-.8.3-1.4.2-2.8-.3-4.2-.5-1.9-.2-3.9-.1-5.9,0-1.9.1-3.9.2-5.8.4-1.6.2-3.6.2-5,1.1-2.4,1.5-2.4,4.9-1.6,7.4c1.1,3.2,3.9,5,6.7,6.5c3.6,1.9,7.3,4,10.7,6.2c1.1.7,3,1.7,3.1,3.2s-1.6,2.3-2.8,2.5c-1.5.4-3.1.4-4.7.4-1.8,0-3.6.2-5.4.3s-3.6.2-5.4.1c-1.7-.1-3.4-.3-5,.1-1.8.3-4.2,1.7-3.7,3.9.4,1.6,2.1,2.7,3.5,3.4c1.9,1,4,1.8,6,2.5c1.6.6,3.3,1,4.9,1.7c1.6.8,3,1.8,4.3,3c.6.6,1.1,1.2,1.7,1.8.2.2.7.9.8.9c0,0,.1-.3.1-.4.1,0-.2,0-.1.1-.1,0-.6.4-.7.4-.9.4-1.8.8-2.7,1-1.8.6-3.7,1.2-5.5,1.3s-3.4.1-5,.9c-1.7,1-.2,3.5,1.6,2.7v0Z" stroke="#000" stroke-miterlimit="10"/></g></g></g></g></g></g></svg>