<svg xmlns="http://www.w3.org/2000/svg" width="16" height="16" fill="none" viewBox="0 0 16 16">
  <path fill="#000" d="M15.553.12a.5.5 0 01.132.584c-1.53 3.43-4.743 8.17-7.095 10.64a6.066 6.066 0 01-2.373 1.534c-.018.227-.06.538-.16.868-.201.659-.667 1.479-1.708 1.74a8.117 8.117 0 01-3.078.132 3.652 3.652 0 01-.562-.135 1.38 1.38 0 01-.466-.247.714.714 0 01-.204-.288.622.622 0 01.004-.443c.095-.245.316-.38.46-.452.395-.197.626-.453.868-.826.095-.144.184-.297.287-.472l.117-.198c.15-.255.326-.54.546-.848.528-.74 1.2-.925 1.746-.896.126.007.243.025.348.048.062-.172.142-.38.238-.608.26-.62.658-1.42 1.187-2.07 2.176-2.67 6.18-6.205 9.117-8.103a.5.5 0 01.596.04z"/>
</svg>
