<svg xmlns="http://www.w3.org/2000/svg" width="1920" height="1280" fill="none" viewBox="0 0 1920 1280">
  <path fill="#000" d="m895.976 1152 336.004-384H463.976l-336 384h768ZM1908.98 75c10 22.667 13.16 46.5 9.5 71.5-3.67 25-13.84 46.833-30.5 65.5L991.976 1236c-25.334 29.33-57.334 44-96 44h-768c-25.334 0-48.5-6.83-69.5-20.5s-36.834-31.83-47.5-54.5c-10-22.67-13.167-46.5-9.5-71.5 3.666-25 13.833-46.83 30.5-65.5l896-1024c25.333-29.333 57.333-44 96.004-44h768c25.33 0 48.5 6.833 69.5 20.5s36.83 31.833 47.5 54.5Z"/>
</svg>
