<svg
   xmlns="http://www.w3.org/2000/svg"
   viewBox="0 0 650.31323 1009.072"
   data-project="scaffolding">
<style
   type="text/css"
   id="style2">
	.st0{stroke:#000000;stroke-width:2;stroke-miterlimit:10;}
</style>
<g
   id="g8"
   transform="translate(-556.35084,-49.860856)">
	<g
   id="g6">
		<path
   class="st0"
   d="m 846.9,62.6 c -1.5,9.3 -3.6,18.5 -3.3,28 0.2,7.7 1.8,15.1 5,22.1 2.6,5.7 6.5,11.9 12.4,14.7 5.3,2.5 11.2,1.3 16,-1.7 9.9,-6.1 14.9,-18.4 16.8,-29.4 1.8,-10.8 1.1,-23.1 -6.3,-31.7 -2.1,-2.5 -4.5,-4.8 -7,-6.9 -2.5,-2.2 -5.1,-4.4 -8.1,-5.8 -6.7,-3.3 -13.3,1.9 -18.5,5.7 -1.3,0.9 -2.6,1.9 -4,2.7 -1.7,1 -0.2,3.6 1.5,2.6 2.9,-1.7 5.5,-3.8 8.2,-5.6 2.6,-1.7 5.9,-3.8 9.1,-3.4 2.4,0.3 4.8,2.2 6.7,3.6 2.6,1.9 4.9,4.1 7.2,6.4 1.7,1.8 3.5,3.6 4.8,5.7 1.2,2 2.1,4.1 2.8,6.3 1.5,5.1 1.7,10.5 1.2,15.8 -0.9,10.5 -4.8,22 -12.9,29.2 -3.4,3 -8.3,5.5 -12.9,4.9 -5.8,-0.8 -10,-6.3 -12.7,-11 -3.2,-5.6 -5.2,-11.9 -6,-18.3 -1.1,-8.8 0.1,-17.5 1.6,-26.2 0.4,-2.3 0.8,-4.6 1.2,-6.8 0.4,-2 -2.5,-2.8 -2.8,-0.9 z"
   id="path4" />
	</g>
</g>
<g
   id="g14"
   transform="translate(-556.35084,-49.860856)">
	<g
   id="g12">
		<path
   class="st0"
   d="m 853,74.8 c 0.6,2.8 1.4,5.7 2.3,8.4 0.3,0.7 1,1.3 1.8,1 0.7,-0.2 1.3,-1.1 1,-1.8 -0.9,-2.8 -1.7,-5.6 -2.3,-8.4 -0.2,-0.8 -1.1,-1.3 -1.8,-1 -0.8,0.3 -1.2,1 -1,1.8 z"
   id="path10" />
	</g>
</g>
<g
   id="g20"
   transform="translate(-556.35084,-49.860856)">
	<g
   id="g18">
		<path
   class="st0"
   d="m 869.8,72.9 c 0.3,0 -0.3,-0.1 0,0 0.2,0 0.3,0.1 0.4,0.1 0.1,0 0.4,0.2 0.1,0 0.1,0.1 0.2,0.1 0.3,0.1 0.1,0.1 0.2,0.1 0.3,0.2 -0.3,-0.2 -0.1,-0.1 0,0 0.2,0.1 0.3,0.3 0.4,0.5 0.2,0.2 -0.1,-0.2 0.1,0.1 0.1,0.1 0.1,0.2 0.2,0.3 0.1,0.2 0.2,0.4 0.3,0.7 0.2,0.3 -0.1,-0.3 0,0.1 0,0.1 0.1,0.2 0.1,0.3 0.1,0.3 0.2,0.5 0.2,0.8 0.1,0.5 0.3,1 0.3,1.6 0,0.1 0,0.3 0.1,0.4 0.1,0.4 0,-0.2 0,0.1 0,0.3 0.1,0.6 0.1,0.9 0.1,1 0.1,2.1 0.1,3.1 0,0.8 0.7,1.5 1.5,1.5 0.8,0 1.5,-0.7 1.5,-1.5 0,-4.4 -0.4,-11.7 -6.1,-12.2 -0.8,-0.1 -1.5,0.7 -1.5,1.5 0.1,0.8 0.8,1.3 1.6,1.4 z"
   id="path16" />
	</g>
</g>
<g
   id="g26"
   transform="translate(-556.35084,-49.860856)">
	<g
   id="g24">
		<path
   class="st0"
   d="m 857.5,97.2 c 3.9,2.2 6.5,6.8 9.2,10.4 1.8,2.4 5.6,7.5 8.6,3.6 0.8,-1 1.2,-2.2 1.6,-3.4 0.6,-2 0.9,-4.1 1.2,-6.2 0.1,-0.8 -0.2,-1.6 -1,-1.8 -0.7,-0.2 -1.7,0.2 -1.8,1 -0.4,2.7 -0.7,6.1 -2,8.2 -0.1,0.2 -0.2,0.3 -0.3,0.4 0.2,-0.3 -0.1,0.1 -0.2,0.1 -0.2,0.2 0.2,-0.3 -0.1,0 -0.1,0.1 0.4,-0.1 0.1,0 -0.3,0 0.1,0.1 0.1,0 h -0.3 c 0.1,0.2 0.4,0 0.1,0 0,0 -0.1,0 -0.2,0 -0.1,-0.1 0.3,0.2 -0.1,-0.1 -0.1,-0.1 -0.3,-0.2 -0.4,-0.3 0.3,0.2 -0.1,-0.1 -0.2,-0.1 -0.1,-0.1 -0.3,-0.2 -0.4,-0.4 -0.3,-0.3 -0.6,-0.6 -0.9,-1 -0.6,-0.8 -1,-1.3 -1.7,-2.2 -1.4,-1.9 -2.8,-3.9 -4.3,-5.8 -1.6,-2 -3.4,-3.9 -5.6,-5.1 -1.6,-0.8 -3.1,1.8 -1.4,2.7 z"
   id="path22" />
	</g>
</g>
<g
   id="g32"
   transform="translate(-556.35084,-49.860856)">
	<g
   id="g30">
		<path
   class="st0"
   d="m 890,109.6 c 9.9,1.5 17.2,11.1 22.1,19.1 2.9,4.8 5.2,9.8 7.5,14.9 3.1,6.5 6.1,13 9.2,19.5 2.9,6.1 6.4,12.1 7.8,18.7 1.2,5.7 0.8,11.6 -0.1,17.4 -0.8,5.9 -2.4,11.8 -1.6,17.7 0.6,5.2 2.8,10 4.9,14.7 2.7,5.8 4.9,11.6 5.9,18 1.1,6.6 1.4,13.2 2.4,19.8 1,6.9 3.4,13.3 5.5,19.9 2.1,6.6 4.1,13.2 5.9,19.9 1.8,6.6 3.6,13.4 4.7,20.2 1.1,7 1.5,14 2.1,21.1 0.6,6.8 1.6,13.3 3.3,19.9 1.7,6.4 3.9,12.8 5.7,19.2 1.8,6.5 3,13.2 4.4,19.8 1.5,7 3.1,13.9 4.6,20.8 1.4,6.9 2.5,13.8 3.3,20.7 0.4,3.2 0.8,6.4 1,9.6 0.1,2.8 0.1,5.6 0.4,8.5 0.3,2.7 0.8,5.3 1.9,7.7 0.8,1.7 3.4,0.2 2.6,-1.5 -2.4,-5.3 -1.5,-11.5 -2.1,-17.1 -0.7,-6.8 -1.5,-13.7 -2.7,-20.4 -1.2,-7 -2.8,-13.8 -4.3,-20.7 -1.5,-6.9 -2.9,-13.8 -4.4,-20.7 C 977.2,383 971.5,370.4 969.8,356.9 969,350 968.7,343 968,336 c -0.7,-6.9 -2.1,-13.6 -3.8,-20.4 -1.7,-6.8 -3.6,-13.6 -5.7,-20.3 -2,-6.6 -4.7,-13.2 -6.3,-19.9 -1.6,-6.7 -2,-13.6 -2.8,-20.5 -0.8,-6.6 -2.1,-13 -4.6,-19.1 -2.1,-5 -4.8,-9.8 -6.2,-15.1 -1.7,-6.1 -0.6,-11.9 0.3,-18 0.9,-5.6 1.7,-11.3 1.2,-17 -0.6,-6.3 -2.9,-11.9 -5.6,-17.6 -3.1,-6.5 -6.2,-13 -9.3,-19.5 -2.7,-5.8 -5.3,-11.8 -8.3,-17.4 -4.6,-8.5 -10.9,-17.7 -19.7,-22.3 -2,-1.1 -4.2,-1.8 -6.4,-2.2 -1.8,-0.3 -2.7,2.6 -0.8,2.9 z"
   id="path28" />
	</g>
</g>
<g
   id="g38"
   transform="translate(-556.35084,-49.860856)">
	<g
   id="g36">
		<path
   class="st0"
   d="m 983.2,569.3 c -0.8,5.9 -3.5,11.2 -8.9,13.9 -5.4,2.7 -12,2.9 -17.9,2.9 -1.9,0 -1.9,3 0,3 9.8,-0.1 21.7,-1 27,-10.6 1.6,-2.9 2.4,-6 2.8,-9.3 0.1,-0.8 -0.8,-1.5 -1.5,-1.5 -0.9,0 -1.4,0.8 -1.5,1.6 z"
   id="path34" />
	</g>
</g>
<g
   id="g44"
   transform="translate(-556.35084,-49.860856)">
	<g
   id="g42">
		<path
   class="st0"
   d="m 921.8,578.4 c 0.2,-4.2 4.4,-7 7.5,-9.3 3.8,-2.8 7.3,-5.6 9.2,-10.1 1.2,-2.9 2,-6 2.8,-9 0.8,-3.1 1.8,-6.1 2.4,-9.3 0.6,-3 0.5,-6.1 -0.1,-9.1 -0.7,-3.1 -2.1,-6 -3.4,-8.9 -3.3,-7 -4.3,-14.8 -4.5,-22.5 -0.1,-1.9 -3.1,-1.9 -3,0 0.2,6.8 1,13.7 3.3,20.2 1.2,3.2 2.8,6.1 3.9,9.4 1,2.9 1.4,5.8 1.1,8.9 -0.4,3.2 -1.5,6.3 -2.3,9.3 -0.8,3.1 -1.6,6.2 -2.7,9.1 -0.8,2.2 -1.9,4 -3.6,5.6 -1.6,1.5 -3.5,2.8 -5.2,4.2 -3.9,2.9 -8.1,6.2 -8.3,11.4 -0.2,2.1 2.8,2.1 2.9,0.1 z"
   id="path40" />
	</g>
</g>
<g
   id="g50"
   transform="translate(-556.35084,-49.860856)">
	<g
   id="g48">
		<path
   class="st0"
   d="m 928.5,468.9 c -4.2,-8.4 -6.4,-17.5 -9,-26.5 -1.3,-4.5 -2.8,-8.9 -4.6,-13.2 -2,-4.6 -4,-9.2 -5.8,-13.9 -3.7,-9.4 -7.2,-18.8 -11.1,-28.1 -3.9,-9.3 -7.9,-18.5 -11.7,-27.9 -4.3,-10.5 -8.3,-21 -11.9,-31.8 -0.6,-1.8 -3.5,-1 -2.9,0.8 6.4,19.2 14.4,37.8 22.2,56.3 4,9.4 7.7,18.8 11.3,28.3 1.8,4.8 3.7,9.5 5.7,14.2 1.9,4.4 3.6,8.7 5.1,13.3 3.1,10.1 5.4,20.5 10.2,29.9 0.8,1.9 3.4,0.3 2.5,-1.4 z"
   id="path46" />
	</g>
</g>
<g
   id="g56"
   transform="translate(-556.35084,-49.860856)">
	<g
   id="g54">
		<path
   class="st0"
   d="m 849.2,238 c 5.2,13.8 7.4,28.6 9.5,43.1 1.1,7.5 2.5,15 3.2,22.5 0.8,7.4 0.9,14.8 0.3,22.1 -0.6,8.2 -2.1,16.4 -3.3,24.6 -1.2,8.3 -2.3,16.7 -3.2,25.1 -1.7,16.7 -2.2,33.6 -0.3,50.3 0.9,8.5 2.5,16.9 3.7,25.3 1.1,8.4 2.2,16.8 3.5,25.1 0.3,2.1 0.7,4.2 1.1,6.3 0.3,1.9 3.2,1.1 2.9,-0.8 -1.5,-8.4 -2.7,-16.9 -3.8,-25.4 -1.1,-8.4 -2.4,-16.7 -3.7,-25 -2.4,-16.7 -2.3,-33.7 -0.9,-50.4 0.7,-8.4 1.8,-16.8 2.9,-25.2 1.2,-8.3 2.6,-16.5 3.6,-24.8 0.8,-7.4 1,-14.8 0.5,-22.2 -0.5,-7.6 -1.8,-15.2 -2.9,-22.7 -2.2,-14.6 -4.1,-29.4 -8.6,-43.5 -0.5,-1.7 -1.1,-3.3 -1.7,-5 -0.6,-2 -3.5,-1.2 -2.8,0.6 z"
   id="path52" />
	</g>
</g>
<g
   id="g62"
   transform="translate(-556.35084,-49.860856)">
	<g
   id="g60">
		<path
   class="st0"
   d="m 866.7,517.1 c 2.2,0 4.4,0.6 6.4,1.4 2.2,0.9 4.5,2.1 6.2,3.9 3.5,3.9 -1.3,7.7 -4.2,10.2 -1.9,1.6 -3.9,3.2 -5.4,5.2 -1.5,1.9 -2.5,4.2 -3.4,6.5 -1.5,4.1 -2.3,8.9 -0.8,13.1 1.8,5.4 6.6,8 12,8.7 0.8,0.1 1.5,-0.8 1.5,-1.5 0,-0.9 -0.7,-1.4 -1.5,-1.5 -4.4,-0.6 -8.3,-3 -9.4,-7.5 -1.1,-4.2 0.1,-8.8 2,-12.6 1.1,-2.2 2.3,-4 4.1,-5.7 1.9,-1.8 4,-3.3 5.8,-5.1 1.6,-1.5 3,-3.4 3.4,-5.6 0.4,-2.4 -0.5,-4.6 -2,-6.3 -1.9,-2.1 -4.6,-3.5 -7.2,-4.5 -2.3,-0.9 -4.9,-1.6 -7.5,-1.6 -1.9,-0.1 -1.9,2.9 0,2.9 z"
   id="path58" />
	</g>
</g>
<g
   id="g68"
   transform="translate(-556.35084,-49.860856)">
	<g
   id="g66">
		<path
   class="st0"
   d="m 864.1,568 c 5.2,4.8 13.5,4.8 20.1,4.7 3.5,-0.1 7.1,-0.3 10.6,-0.4 3.7,-0.1 7.4,0.4 11.2,0.4 3.9,0 7.8,-0.9 10.5,-3.9 2.4,-2.7 2,-5.7 0.6,-8.8 -0.7,-1.6 -1.6,-3.1 -2.2,-4.8 -0.8,-2.2 -1.4,-4.4 -2,-6.6 -1.1,-4.7 -1.8,-9.5 -2.1,-14.3 -0.6,-10.8 0.6,-21.7 3.3,-32.2 0.5,-1.9 -2.4,-2.7 -2.9,-0.8 -4.4,17.4 -5.4,36.7 0.5,53.9 0.6,1.7 1.4,3.4 2.2,5.1 0.6,1.2 1.3,2.5 1.4,3.8 0.3,3.3 -4.1,5 -6.7,5.4 -3.7,0.5 -7.5,-0.1 -11.2,-0.2 -3.2,-0.1 -6.4,0.2 -9.5,0.3 -4.1,0.2 -8.2,0.3 -12.2,-0.2 -3.3,-0.4 -7,-1.2 -9.5,-3.5 -1.4,-1.3 -3.5,0.8 -2.1,2.1 z"
   id="path64" />
	</g>
</g>
<g
   id="g74"
   transform="translate(-556.35084,-49.860856)">
	<g
   id="g72">
		<path
   class="st0"
   d="m 918.7,476.2 c -1.5,-7 -1.4,-14.4 0,-21.4 0.4,-1.9 -2.5,-2.7 -2.9,-0.8 -1.5,7.5 -1.6,15.5 0,23 0.4,1.9 3.3,1.1 2.9,-0.8 z"
   id="path70" />
	</g>
</g>
<g
   id="g80"
   transform="translate(-556.35084,-49.860856)">
	<g
   id="g78">
		<path
   class="st0"
   d="m 811.3,205.1 c -3.1,3.5 -3.9,8.5 -3.6,13 0.3,5 1.8,10.2 4.7,14.4 1.3,1.9 2.8,3.6 4.8,4.8 2.1,1.3 4.7,1.9 7.1,2.3 6.4,1 12.9,0.6 19.3,0.2 6,-0.4 12.2,-0.6 18.2,-1.4 5.6,-0.7 11,-2.2 15.8,-5.2 5.9,-3.6 10.3,-9 15.2,-13.9 5.3,-5.3 10.7,-10.5 15.5,-16.3 2.4,-2.9 4.5,-6.1 6.7,-9.2 2,-2.8 4.4,-5.4 6.4,-8.1 2.1,-2.8 3.8,-5.8 4.8,-9.2 1.1,-3.7 1.3,-7.6 1.5,-11.4 0.1,-1.9 0.2,-3.8 0.4,-5.7 0.2,-1.9 -2.8,-1.9 -3,0 -0.8,7.1 -0.1,14.5 -3.8,21 -1.6,2.8 -3.7,5.3 -5.7,7.8 -2.2,2.7 -4.1,5.5 -6.2,8.4 -4.2,5.8 -9.1,10.9 -14.1,15.9 -2.5,2.5 -5,4.9 -7.5,7.4 -2.4,2.5 -4.7,5.1 -7.4,7.4 -4,3.5 -8.7,5.9 -13.8,7.1 -5.5,1.3 -11,1.4 -16.6,1.8 -6,0.4 -12,1 -18.1,0.9 -2.8,0 -5.6,-0.2 -8.4,-0.8 -2.1,-0.4 -4.2,-1.1 -5.9,-2.5 -3.8,-3.2 -5.8,-8.5 -6.6,-13.4 -0.7,-4.3 -0.7,-9.9 2.4,-13.3 1.3,-1.3 -0.9,-3.4 -2.1,-2 z"
   id="path76" />
	</g>
</g>
<g
   id="g86"
   transform="translate(-556.35084,-49.860856)">
	<g
   id="g84">
		<path
   class="st0"
   d="m 909.3,127 c -3,3.2 -7.4,4.6 -11.2,6.6 -3.9,2.1 -7.2,5.1 -9.6,8.8 -4.9,7.2 -5.8,16.2 -7.4,24.5 -0.8,4.2 -1.8,8.4 -3.7,12.2 -2,3.9 -5,6.9 -8.7,9.1 -7.5,4.6 -16.5,6.1 -25.1,7.7 -5.2,1 -10.2,2.4 -15.3,4.1 -5.2,1.7 -10.5,3.1 -16,3.1 -1.9,0 -1.9,3 0,3 5,0 9.8,-1 14.6,-2.5 4.6,-1.4 9.2,-3.1 14,-4.1 8.8,-1.8 17.7,-2.9 25.9,-6.8 3.9,-1.9 7.7,-4.4 10.5,-7.8 2.7,-3.4 4.4,-7.4 5.5,-11.6 2.3,-8.5 2.4,-17.6 6.2,-25.7 2.1,-4.5 5.4,-8.4 9.7,-10.9 4.3,-2.5 9.3,-4 12.8,-7.6 1.3,-1.4 -0.9,-3.5 -2.2,-2.1 z"
   id="path82" />
	</g>
</g>
<g
   id="g92"
   transform="translate(-556.35084,-49.860856)">
	<g
   id="g90">
		<path
   class="st0"
   d="m 874.4,141.8 c 3,-0.2 5.2,2.2 7.8,3.4 2.6,1.2 5.2,0.9 7.2,-1.1 4.4,-4.5 6.6,-10.9 8.7,-16.7 1.7,-4.7 3.2,-9.5 4.7,-14.2 0.6,-1.9 -2.3,-2.6 -2.9,-0.8 -1.2,3.9 -2.4,7.8 -3.8,11.7 -1.1,3.2 -2.2,6.7 -3.6,9.7 -1.1,2.4 -2.5,4.9 -4.1,7 -0.5,0.7 -1.3,1.7 -2.1,2 -0.9,0.4 -2.2,0 -3.1,-0.5 -2.8,-1.5 -5.2,-3.7 -8.7,-3.5 -2.1,0.1 -2.1,3.1 -0.1,3 z"
   id="path88" />
	</g>
</g>
<g
   id="g98"
   transform="translate(-556.35084,-49.860856)">
	<g
   id="g96">
		<path
   class="st0"
   d="m 894.6,108.2 c -12.1,4.8 -17.1,19.3 -20.1,30.8 0.5,-0.4 1,-0.7 1.4,-1.1 -4.4,-0.6 -6.4,-6.1 -8.7,-9.1 -1.2,-1.5 -3.8,0 -2.6,1.5 3.2,4.2 5.4,9.9 11.3,10.6 0.6,0.1 1.3,-0.5 1.4,-1.1 1.5,-5.7 3.4,-11.4 6.1,-16.6 2.7,-5 6.5,-10 11.9,-12.2 1.9,-0.6 1.1,-3.5 -0.7,-2.8 z"
   id="path94" />
	</g>
</g>
<g
   id="g104"
   transform="translate(-556.35084,-49.860856)">
	<g
   id="g102">
		<path
   class="st0"
   d="m 868.6,135.8 c -2.4,0.4 -4.2,2.3 -5.3,4.4 -0.5,1.1 -1,2.2 -1.4,3.4 -0.4,1 -0.7,2.1 -1.1,2.9 -0.4,0.7 -0.2,1.6 0.5,2.1 2.9,1.8 6.3,2.7 9.4,1 2.8,-1.5 4.7,-4.4 6.4,-7 0.5,-0.7 0.1,-1.7 -0.5,-2.1 -0.7,-0.4 -1.6,-0.1 -2.1,0.5 -0.8,1.1 -1.5,2.3 -2.4,3.3 -0.4,0.5 -0.9,1 -1.3,1.4 -0.5,0.5 -0.7,0.6 -1.3,1 -0.9,0.6 -1.7,0.7 -2.8,0.7 -0.4,0 -1.1,-0.2 -1.7,-0.4 -0.8,-0.3 -1.5,-0.7 -2.1,-1.1 0.2,0.7 0.4,1.4 0.5,2.1 0.9,-1.9 1.5,-4.1 2.3,-5.8 0.2,-0.5 0.4,-0.9 0.7,-1.3 0.3,-0.5 0.4,-0.6 0.7,-1 0.6,-0.7 1.2,-1 2.2,-1.2 0.8,-0.1 1.2,-1.1 1,-1.8 -0.1,-0.9 -0.9,-1.2 -1.7,-1.1 z"
   id="path100" />
	</g>
</g>
<g
   id="g110"
   transform="translate(-556.35084,-49.860856)">
	<g
   id="g108">
		<path
   class="st0"
   d="m 866.9,147.2 c -3.3,5.2 -3.9,11.9 -4.2,17.9 -0.3,6.3 0,12.6 0.2,18.9 0,1.9 3,1.9 3,0 -0.1,-6.1 -0.4,-12.1 -0.2,-18.2 0.2,-5.7 0.6,-12.2 3.8,-17.1 1.1,-1.6 -1.5,-3.1 -2.6,-1.5 z"
   id="path106" />
	</g>
</g>
<g
   id="g116"
   transform="translate(-556.35084,-49.860856)">
	<g
   id="g114">
		<path
   class="st0"
   d="m 814.9,235.3 c -1.3,3.1 -1.8,6.4 -2.3,9.7 -0.4,2.7 -0.8,5.8 -2.8,7.8 -2,2 -4.8,2.7 -7.6,3.2 -3.1,0.5 -6.3,0.8 -9.4,0.9 -2.4,0.1 -5.6,0.2 -7.7,-0.7 -2.1,-0.9 -4.8,-3.1 -4.2,-5.7 0.6,-2.5 3.1,-4.3 5.1,-5.6 2.2,-1.4 4.8,-2.5 7.4,-2.9 6.1,-0.7 16,-1.2 19.2,5.4 0.8,1.7 3.4,0.2 2.6,-1.5 -3.4,-7.1 -12.7,-7.5 -19.5,-7.1 -3.3,0.2 -6.2,0.9 -9.2,2.4 -2.9,1.4 -5.8,3.5 -7.5,6.2 -1.7,2.7 -1.5,5.7 0.5,8.2 2.2,2.7 5.2,3.8 8.5,4.1 3.6,0.3 7.2,0.1 10.7,-0.3 3.1,-0.4 6.4,-0.7 9.3,-2 3.8,-1.6 6,-4.7 6.9,-8.7 0.9,-4 0.9,-8.2 2.5,-12.1 0.3,-0.8 0.2,-1.6 -0.5,-2.1 -0.6,-0.1 -1.7,0.1 -2,0.8 z"
   id="path112" />
	</g>
</g>
<g
   id="g122"
   transform="translate(-556.35084,-49.860856)">
	<g
   id="g120">
		<path
   class="st0"
   d="m 780.9,242.4 c -2.3,-1.1 -3.9,-3 -3.3,-5.6 0.6,-2.3 2.3,-4.3 4.4,-5.2 3,-1.3 6.7,-1.2 9.9,-1.2 3.7,0 7.4,0.2 11.1,0.3 1.9,0 1.9,-3 0,-3 -6.6,-0.1 -13.4,-1 -19.9,0.5 -4.6,1 -8.9,5.1 -8.7,10.1 0.1,3.1 2.2,5.5 4.9,6.8 1.8,0.8 3.3,-1.8 1.6,-2.7 z"
   id="path118" />
	</g>
</g>
<g
   id="g128"
   transform="translate(-556.35084,-49.860856)">
	<g
   id="g126">
		<path
   class="st0"
   d="m 802.7,223.1 c -2.4,0.8 -5.5,1.6 -7.5,-0.4 -1.8,-1.8 -2.3,-4.6 -2.8,-7 -0.3,-1.5 -0.6,-3 -1,-4.5 -0.2,-1.1 -0.6,-2.4 -0.6,-3.4 0,-0.2 0,-0.4 0,-0.6 0,-0.2 0,0.1 0.1,-0.3 0.1,-0.4 0.1,-0.3 0.3,-0.6 0.5,-0.5 1.7,-0.9 2.7,-1.1 2.1,-0.6 4.2,-0.9 6.4,-0.9 2.5,0 4.9,0.3 7.4,0.3 1.9,0 1.9,-3 0,-3 -2.5,0 -5.1,-0.3 -7.6,-0.3 -2.3,0 -4.5,0.3 -6.7,0.9 -2.6,0.7 -5.3,1.8 -5.6,4.8 -0.1,1.2 0.2,2.5 0.4,3.7 0.3,1.7 0.7,3.3 1.1,5 0.7,3.1 1.4,6.5 3.5,8.9 2.8,3.2 7.1,2.7 10.7,1.5 1.8,-0.7 1.1,-3.6 -0.8,-3 z"
   id="path124" />
	</g>
</g>
<g
   id="g134"
   transform="translate(-556.35084,-49.860856)">
	<g
   id="g132">
		<path
   class="st0"
   d="m 836.8,194.7 c -5.4,0.7 -10.4,-2.3 -14.8,-4.9 -4.9,-2.7 -10,-5.8 -15.8,-6.1 -3.3,-0.1 -6.5,0.9 -9.2,2.7 -1.6,1.1 -0.1,3.7 1.5,2.6 10.1,-6.8 20.7,3.8 30,7.4 2.6,1 5.5,1.6 8.3,1.3 0.8,-0.1 1.5,-0.6 1.5,-1.5 0,-0.7 -0.7,-1.6 -1.5,-1.5 z"
   id="path130" />
	</g>
</g>
<g
   id="g140"
   transform="translate(-556.35084,-49.860856)">
	<g
   id="g138">
		<path
   class="st0"
   d="m 780.5,201.7 c -1.8,0.3 -3.5,-0.9 -4.1,-2.4 -0.2,-0.5 -0.2,-0.6 -0.2,-1.1 0,-0.3 0,-0.5 0.2,-0.8 0.2,-0.3 0.3,-0.4 0.7,-0.6 0.5,-0.2 1,-0.3 1.6,-0.4 -0.4,-0.2 -0.9,-0.5 -1.3,-0.7 0.1,0.1 0.2,0.3 0.2,0.4 0.1,0.1 -0.1,-0.2 0.1,0.2 0.1,0.4 0.2,0.8 0.3,1.2 0,0.1 0,0.2 0,0.3 0,-0.3 0,-0.1 0,0 0,0.2 0,0.5 0.1,0.7 0,0.5 0.1,1 0.1,1.5 0.1,2.3 0,4.6 0,6.9 0,3.6 0,9.3 3.6,11.4 2.4,1.4 5.3,0.3 7.6,-0.8 1.7,-0.9 0.2,-3.5 -1.5,-2.6 -0.5,0.3 -1,0.5 -1.6,0.7 -0.4,0.1 -1.2,0.3 -1.3,0.3 -0.2,0 -0.4,0 -0.6,0 -0.1,0 -0.6,-0.1 -0.2,0 -0.2,0 -0.4,-0.1 -0.5,-0.1 -0.1,0 -0.3,-0.1 0,0 -0.1,0 -0.2,-0.1 -0.3,-0.1 -0.1,0 -0.2,-0.1 -0.2,-0.2 0,0 0.2,0.2 0,0 -0.1,-0.1 -0.2,-0.2 -0.3,-0.3 -0.3,-0.3 0,0.1 -0.2,-0.3 -0.1,-0.2 -0.2,-0.4 -0.3,-0.5 0,-0.1 -0.1,-0.2 -0.1,-0.2 0.1,0.3 0,0 0,0 -0.1,-0.2 -0.1,-0.4 -0.2,-0.6 -0.1,-0.5 -0.3,-0.9 -0.3,-1.4 -0.4,-1.8 -0.4,-4 -0.4,-6.1 0,-2.1 0.1,-4.3 0,-6.4 -0.1,-1.8 -0.1,-3.9 -1.1,-5.4 -0.3,-0.4 -0.8,-0.8 -1.3,-0.7 -1.8,0.1 -3.7,0.7 -4.8,2.3 -0.8,1.2 -0.9,2.8 -0.5,4.2 1.1,3.3 4.4,5.3 7.8,4.6 1.7,-0.5 0.9,-3.4 -1,-3 z"
   id="path136" />
	</g>
</g>
<g
   id="g146"
   transform="translate(-556.35084,-49.860856)">
	<g
   id="g144">
		<path
   class="st0"
   d="m 792.4,201.6 c 0,-0.7 0,-0.9 0.2,-1.6 0.2,-0.7 0.4,-1.3 0.7,-2 0.5,-1.3 1.2,-2.6 1.7,-4 1,-2.4 1.9,-5.4 0.4,-7.8 -1.6,-2.3 -4.7,-3.3 -7.3,-2.3 -2.7,1 -4.7,3.4 -6.2,5.8 -1.5,2.4 -2.8,5.1 -3.2,8 -0.1,0.8 0.8,1.5 1.5,1.5 0.9,0 1.4,-0.7 1.5,-1.5 -0.1,0.4 0,-0.2 0.1,-0.3 0,-0.2 0.1,-0.4 0.2,-0.6 0.1,-0.5 0.3,-1 0.5,-1.5 0.4,-1 0.9,-2 1.5,-3.1 1.1,-2 2.6,-4 4.5,-5.1 0.1,-0.1 0.2,-0.1 0.3,-0.1 0,0 0.5,-0.2 0.2,-0.1 0.2,-0.1 0.5,-0.2 0.7,-0.2 0.4,-0.1 0.7,-0.1 1.1,-0.1 0.3,0 0.8,0.2 1,0.4 0.2,0.1 0.5,0.3 0.6,0.3 0.1,0.1 0.2,0.2 0.4,0.3 0,0 0.3,0.4 0.2,0.2 0.3,0.5 0.3,0.5 0.4,1.1 0,-0.3 0,0.4 0,0.5 0,0.2 0,0.3 0,0.5 0,0.3 0,-0.1 0,0.2 -0.2,1.2 -0.7,2.3 -1.1,3.3 -1.1,2.6 -2.7,5.3 -2.7,8.2 -0.2,1.9 2.8,1.9 2.8,0 z"
   id="path142" />
	</g>
</g>
<g
   id="g152"
   transform="translate(-556.35084,-49.860856)">
	<g
   id="g150">
		<path
   class="st0"
   d="m 771,197.8 c -6.3,0 -12.7,-0.8 -18.8,0.8 -1.9,0.5 -1.1,3.4 0.8,2.9 5.8,-1.5 12,-0.7 18,-0.7 1.9,0 1.9,-3 0,-3 z"
   id="path148" />
	</g>
</g>
<g
   id="g158"
   transform="translate(-556.35084,-49.860856)">
	<g
   id="g156">
		<path
   class="st0"
   d="m 558.9,316.9 c -1.8,4.4 -0.5,9.5 0.7,13.9 1.5,5.5 2.9,10.7 3.8,16.4 2.2,15.3 3.7,30.5 3.9,46 0.1,14.9 -0.5,29.8 -0.3,44.7 0.3,15.5 0.3,30.8 -0.4,46.3 -0.7,15 -1.8,30 -2.2,45 -0.4,14.8 -0.2,29.7 -1,44.5 -0.9,15 -1.5,29.9 -1.7,45 -0.2,14.7 -1,29.4 -1.7,44.2 -1.3,29.9 -2.4,59.8 -1.3,89.7 1.1,30.1 4.9,60 6.4,90 0.8,15.2 0.5,30.5 1.1,45.7 0.5,14.3 1.6,28.5 2.3,42.8 0.1,2 0.5,6.7 -1.3,8.2 -0.4,0.3 -2.2,0.8 -3,1.3 -3.4,2.1 -6.4,5.7 -6.8,9.8 -0.4,4.5 1.8,9 3.4,13.1 1.6,4 3.5,8.1 6.6,11.3 2.3,2.3 5.5,4.1 8.6,2.1 4.2,-2.7 4.6,-8.1 5.3,-12.5 0.5,-3.1 1.9,-6.1 5.3,-6.6 2.1,-0.3 4.3,0 6.5,-0.4 3.6,-0.6 8,-2.3 9.2,-6 2.4,-7.3 -6.7,-11.7 -12.2,-13.3 -6.7,-2 -15.1,-4.7 -22.1,-3.2 -2.4,0.5 -4.2,1.8 -4.5,4.3 -0.2,1.9 2.8,1.9 3,0 0.4,-4.3 17.1,0.3 19.4,0.9 3.3,0.9 6.9,1.7 9.8,3.7 3.1,2.1 5.7,6.3 1.7,9 -4,2.7 -8.6,1.1 -12.8,2.4 -4,1.2 -5.8,5.2 -6.4,9.1 -0.5,3.8 -2.4,14.1 -8,9.2 -3.5,-3 -5.5,-7.9 -7.1,-12.1 -1.5,-3.8 -3.9,-8.6 -2.2,-12.8 0.9,-2.1 2.9,-4.1 4.8,-5.3 1,-0.7 2.2,-0.7 3.2,-1.4 2.6,-1.8 2.7,-6.9 2.6,-9.7 -0.2,-6.6 -0.8,-13.2 -1.1,-19.8 -1.5,-28 -1.2,-56 -3.1,-83.9 -1.9,-28 -5.1,-55.9 -5.8,-84 -0.7,-27.6 0.4,-55.2 1.6,-82.8 0.6,-13.9 1.4,-27.7 1.6,-41.6 0.2,-14 0.5,-28 1.5,-42 0.9,-13.7 1,-27.4 1.2,-41.1 0.1,-14.2 1,-28.4 1.8,-42.5 0.8,-14.1 1.5,-28.3 1.3,-42.5 -0.2,-14.1 -0.4,-28.1 -0.2,-42.2 0.2,-14.1 0.2,-28.1 -1.1,-42.2 -1.2,-12.1 -2.6,-24.1 -6,-35.8 -1.3,-4.4 -3,-9.7 -1.2,-14.2 0.5,-1.7 -2.4,-2.5 -3.1,-0.7 z"
   id="path154" />
	</g>
</g>
<g
   id="g164"
   transform="translate(-556.35084,-49.860856)">
	<g
   id="g162">
		<path
   class="st0"
   d="m 559.6,963.7 c 0.2,4.2 1.1,8.4 2.4,12.4 1.2,3.7 2.7,7.5 5.3,10.4 5,5.5 13.2,8.8 20.5,9.1 3.3,0.1 7,-0.4 9.6,-2.5 1.9,-1.5 3.1,-3.7 3.9,-6 2,-5.6 1.9,-12 0.7,-17.7 -1.2,-5.5 -4.3,-12.3 -10.5,-13.2 -1.9,-0.3 -2.7,2.6 -0.8,2.9 4.6,0.7 6.9,5.3 8,9.3 1.4,5 1.6,10.7 0.4,15.8 -0.5,2 -1.2,4.1 -2.5,5.7 -1.5,1.8 -4.1,2.6 -6.5,2.8 -6.7,0.5 -14.2,-2.3 -19.1,-6.8 -2.8,-2.5 -4.3,-5.9 -5.6,-9.4 -1.4,-4.1 -2.4,-8.4 -2.6,-12.7 -0.3,-2 -3.3,-2 -3.2,-0.1 z"
   id="path160" />
	</g>
</g>
<g
   id="g170"
   transform="translate(-556.35084,-49.860856)">
	<g
   id="g168">
		<path
   class="st0"
   d="m 761.2,1015.8 c -2.3,3.5 -2.4,8.2 -2.3,12.3 0.1,4.3 0.3,8.4 -0.3,12.6 -0.7,4.5 -1.2,9.2 2,12.9 2.6,2.9 6.5,4.1 10.3,4.3 8.1,0.4 16.5,-2.9 21.9,-8.9 6,-6.7 8.1,-15.8 7,-24.7 -0.5,-3.9 -2.1,-7.4 -4.9,-10.2 -3.1,-3 -7.1,-5 -10.9,-7 -1.2,-0.6 -2.5,0.4 -2.2,1.7 1.8,7 0.5,17.9 -7.9,19.9 -8.5,2 -17.4,-3.8 -19,-12.3 -0.7,-3.9 0.3,-8.4 2.9,-11.4 2.5,-3 6.5,-4.2 10.2,-4.8 8.1,-1.4 16.5,-0.3 24.7,-0.5 1.7,0 3.7,-0.2 5.4,0.3 0.2,0.1 0.6,0.3 0.5,0.2 0.2,0.1 -0.2,-0.1 0,-0.2 -0.1,0.1 -0.4,0.8 -0.5,1 -0.3,0.5 -0.7,1 -1.2,1.4 -1.7,1.5 -4.3,1.9 -6.4,2 -2.4,0.2 -4.9,0.1 -7.3,0 -1.9,-0.1 -1.9,2.9 0,3 4.7,0.2 10.5,0.7 14.6,-2 1.6,-1.1 3.7,-3.2 3.7,-5.3 0,-1.8 -1.6,-2.8 -3.2,-3.1 -2,-0.4 -4.1,-0.3 -6.1,-0.3 -2.1,0.1 -4.1,0 -6.2,0 -5,-0.2 -10,-0.4 -15,0.1 -4.6,0.4 -9.6,1.4 -13.4,4.3 -3.9,3 -6,8.1 -6,12.9 -0.1,10.3 9,18.2 19,18.2 5.7,0 10.5,-2.8 12.9,-8.1 2.2,-5 2.5,-10.7 1.1,-16 -0.7,0.6 -1.5,1.1 -2.2,1.7 5.4,2.9 11.9,5.9 13.8,12.3 1.1,3.7 0.9,7.8 0.5,11.5 -0.5,3.8 -1.8,7.4 -3.9,10.6 -2.1,3.1 -4.8,5.8 -8.1,7.6 -3.2,1.7 -6.8,2.8 -10.3,3.1 -3.3,0.3 -6.9,0.1 -9.8,-1.7 -3.7,-2.3 -3.9,-6.3 -3.4,-10.2 0.3,-2.2 0.7,-4.4 0.8,-6.7 0.1,-2.2 0,-4.4 -0.1,-6.5 -0.1,-4 -0.5,-8.9 1.9,-12.4 1.1,-1.7 -1.5,-3.2 -2.6,-1.6 z"
   id="path166" />
	</g>
</g>
<g
   id="g176"
   transform="translate(-556.35084,-49.860856)">
	<g
   id="g174">
		<path
   class="st0"
   d="m 1017.6,779.1 c 0,3.9 -0.4,7.7 -0.3,11.6 0.1,3.6 0.4,7.7 2.6,10.7 2.6,3.5 6.9,3.7 10.8,2.6 2.5,-0.7 5,-1.8 6.6,-3.9 1.2,-1.7 1.6,-3.7 1.4,-5.8 -0.5,-4.9 -3.6,-9.4 -3.6,-14.4 -1,0.1 -2,0.3 -2.9,0.4 0.4,2.2 -0.2,4.9 -2,6.4 -2,1.7 -5,0.7 -6.9,-0.7 -2.1,-1.6 -3.4,-4.2 -4.5,-6.5 -1.2,-2.4 -2.2,-5 -2.9,-7.6 -0.1,0.5 -0.3,1 -0.4,1.5 1.1,-1 2.7,-1.5 4.1,-1.8 1.9,-0.4 3.9,-0.6 5.8,-0.7 3.5,-0.1 7.4,0.1 10.7,1.2 -0.3,-0.7 -0.6,-1.5 -0.9,-2.2 -1.3,2.3 -2.5,4.6 -3.8,6.9 -0.9,1.7 1.7,3.2 2.6,1.5 1.3,-2.3 2.5,-4.6 3.8,-6.9 0.5,-0.9 0,-1.9 -0.9,-2.2 -3.8,-1.3 -8.2,-1.5 -12.2,-1.3 -3.8,0.2 -8.5,0.6 -11.4,3.3 -0.4,0.4 -0.5,1 -0.4,1.5 1,3.3 2.3,6.5 3.9,9.5 1.6,3 3.6,6 6.8,7.5 3,1.4 6.6,1.3 9,-1.2 2.3,-2.4 2.9,-5.8 2.3,-8.9 -0.3,-1.7 -2.9,-1.2 -2.9,0.4 0,4.1 2,7.9 3,11.8 0.5,1.7 0.9,3.5 0.4,5.2 -0.5,1.8 -2.2,2.9 -3.9,3.6 -2.9,1.1 -7.1,2 -9.2,-0.8 -1.9,-2.3 -2.1,-5.9 -2.2,-8.8 -0.1,-3.9 0.3,-7.9 0.3,-11.8 0.2,-2 -2.8,-2 -2.8,-0.1 z"
   id="path172" />
	</g>
</g>
<g
   id="g182"
   transform="translate(-556.35084,-49.860856)">
	<g
   id="g180">
		<path
   class="st0"
   d="m 1170.9,801.7 c 0.7,3.2 1.5,6.4 2.6,9.6 1.3,3.6 2.8,7.6 5.5,10.4 2.5,2.6 6.8,3.5 9.5,0.5 1.6,-1.7 1.5,-4 1.2,-6.2 -0.2,-1.4 -0.8,-3.9 0.8,-4.7 2,-1 4.9,0.4 6.7,1.3 2.2,1.1 4.2,2.5 6.2,3.9 1.4,1 3.1,-1.3 1.8,-2.4 -1.9,-1.5 -1.8,-4.2 -2.1,-6.4 -0.3,-2.5 -1,-5 -3,-6.8 -1.5,-1.3 -3.4,-2.2 -5.2,-3 -2.1,-1 -4.3,-1.9 -6.5,-2.7 -3.8,-1.3 -8.5,-2 -12.2,0 -3.2,1.7 -4.3,5.3 -4.6,8.7 -0.3,3.8 0.3,7.7 0.5,11.5 0.2,4 -0.2,8.3 2.3,11.6 1.5,1.9 3.5,3.4 5.5,4.8 1.6,1.1 3.2,2.2 4.9,3.2 3.1,1.8 8.7,5 12.2,2.5 1.9,-1.4 3,-4.1 3.8,-6.2 0.8,-2.3 1.5,-4.7 1.7,-7.1 0.2,-2.6 -1,-4.9 -2.3,-7 -1.4,-2.1 -3.3,-4.4 -2.9,-7.1 0.1,-0.8 -0.2,-1.6 -1,-1.8 -0.7,-0.2 -1.7,0.2 -1.8,1 -0.3,2.4 0.2,4.6 1.4,6.7 1.1,1.8 2.6,3.5 3.3,5.5 0.6,1.7 0.4,3.3 0,5 -0.5,2.1 -1.1,4.1 -2.1,6 -0.6,1.2 -1.2,2.7 -2.6,2.8 -1.9,0.2 -4,-0.8 -5.6,-1.6 -3.6,-1.8 -7.2,-4.1 -10.2,-6.7 -1.2,-1 -2.2,-2.1 -2.8,-3.6 -0.6,-1.8 -0.6,-3.7 -0.7,-5.6 -0.1,-3.6 -0.6,-7.3 -0.7,-10.9 -0.1,-2.7 -0.1,-6.2 1.9,-8.2 2.3,-2.4 6.7,-2 9.5,-1.1 2.1,0.6 4.2,1.5 6.3,2.4 1.9,0.8 4,1.7 5.6,3 3.9,3.1 1.1,9.9 5.2,13.2 0.6,-0.8 1.2,-1.6 1.8,-2.4 -3.6,-2.5 -7.6,-5.3 -12,-5.8 -2.1,-0.2 -4.3,0.3 -5.5,2.1 -1.2,1.7 -0.9,3.9 -0.7,5.8 0.2,1.8 0.5,4 -1.4,4.8 -1.2,0.5 -2.1,0.3 -3.2,-0.4 -2.8,-1.9 -4.3,-5.9 -5.5,-9 -1.3,-3.4 -2.2,-7 -3,-10.6 -0.1,-1.6 -3,-0.8 -2.6,1 z"
   id="path178" />
	</g>
</g>
<g
   id="g188"
   transform="translate(-556.35084,-49.860856)">
	<g
   id="g186">
		<path
   class="st0"
   d="m 773.3,320.3 c 0.2,22.2 5.8,43.6 9.1,65.4 3.6,23.4 1.4,46.8 -0.5,70.3 -3.9,47.3 1.5,94.6 0.5,141.9 -0.2,11.7 -0.9,23.3 -1.6,35 -0.7,11.6 -1.8,23.2 -1.7,34.8 0.1,11.3 1.5,22.5 2.3,33.8 0.8,11.8 0.1,23 -1.6,34.7 -6.9,46 -8.8,92.7 -8.8,139.2 0,23.9 0,47.9 0,71.8 0,10.2 -0.6,20.7 0.6,30.9 0.4,3.6 1.1,7.4 0.5,11.1 -0.7,4.3 -3.5,6.2 -7.6,7.3 -3,0.8 -8.2,1.7 -9.4,-2.2 -1.2,-4.2 1,-9.7 2.1,-13.7 1.2,-4.5 2.2,-9 2.2,-13.6 0,-5.4 -0.2,-10.8 -0.2,-16.1 0,-5.3 -0.2,-10.6 -0.9,-15.9 -0.6,-4.9 -1.7,-9.6 -2.4,-14.5 -1.6,-11.3 1.5,-22.2 3.6,-33.2 3.9,-21.1 5.9,-42 2.4,-63.3 -1.8,-11 -4.3,-22 -4.7,-33.2 -0.5,-11.6 0.3,-23.3 1,-34.9 1.3,-23.4 3.4,-46.7 3,-70.2 -0.2,-11.4 -1.1,-22.8 -2.9,-34 -1.7,-10.8 -3,-21.2 -2.8,-32.1 0.5,-21.5 5.5,-42.4 6.4,-63.8 1,-23.2 0,-46.6 -0.1,-69.8 0,-11.7 -0.2,-23.3 -0.6,-35 -0.4,-11.6 -1.6,-23.1 -2.3,-34.6 -0.7,-11.4 -0.7,-22.9 0.5,-34.3 1.2,-11.6 4.6,-22.8 6.5,-34.4 0.8,-4.8 1,-9.4 0.3,-14.3 -0.8,-5 -2.3,-9.8 -3.4,-14.8 -0.3,0.6 -0.7,1.2 -1,1.8 3.3,-1.2 6.7,-0.8 10.1,-0.8 1.9,0 1.9,-3 0,-3 -3.7,0 -7.3,-0.4 -10.9,0.9 -0.8,0.3 -1.2,1 -1,1.8 1.1,5.2 2.8,10.4 3.5,15.7 0.8,6.1 -0.3,12.1 -1.6,18 -2.3,11.1 -5,22 -5.8,33.3 -1.8,23.5 1.7,46.9 2.4,70.4 0.7,23.7 0.4,47.5 0.7,71.3 0.2,11.8 0.2,23.6 -0.7,35.4 -0.8,11 -2.9,21.8 -4.2,32.7 -1.3,10.7 -2,21.5 -1.7,32.2 0.3,11.1 2.8,21.8 4.1,32.8 2.8,23.7 1.6,47.6 0.1,71.4 -0.8,11.9 -1.6,23.8 -2.1,35.8 -0.5,11.3 -0.8,22.7 0.7,33.9 1.5,11.2 4.2,22.3 5.3,33.6 1.1,11.2 0.3,22.5 -1.1,33.7 -1.5,11.2 -3.8,22.3 -5.9,33.5 -2,10.3 0,19.6 1.6,29.8 1.8,11.2 1.5,22.9 1.4,34.2 0,5.1 -1.4,9.9 -2.7,14.8 -1,3.9 -2.4,8.4 -1.7,12.4 1.1,6.5 8.1,6.5 13.2,5.2 6.9,-1.7 10,-6.4 9.9,-13.4 0,-3.8 -0.7,-7.5 -1.1,-11.2 -0.5,-5.1 -0.2,-10.3 -0.2,-15.4 0,-12.2 0,-24.3 0,-36.5 0,-48.3 -0.4,-96.5 3.9,-144.7 1.1,-12.2 2.5,-24.4 4.2,-36.6 1.6,-11.4 3.2,-22.3 2.8,-33.8 -0.5,-11.5 -2.1,-22.8 -2.5,-34.3 -0.5,-11.8 0.6,-23.6 1.3,-35.3 1.4,-23.9 2.3,-47.7 1.6,-71.7 -0.6,-24.1 -1.9,-48.3 -1.9,-72.4 0,-12 0.4,-24.1 1.4,-36.1 0.9,-11.8 2.1,-23.5 2.6,-35.3 0.4,-11.6 0.1,-23.1 -1.5,-34.6 -1.6,-11.2 -3.9,-22.4 -5.9,-33.5 -2,-11.3 -3.5,-22.7 -3.6,-34.3 -0.2,-1.9 -3.2,-1.9 -3.2,0 z"
   id="path184" />
	</g>
</g>
<g
   id="g194"
   transform="translate(-556.35084,-49.860856)">
	<g
   id="g192">
		<path
   class="st0"
   d="m 757.9,343.3 c -6.9,0.2 -13.7,-0.7 -20.5,-1.4 -6.8,-0.7 -13.5,-0.9 -20.4,-0.9 -14.1,0 -28.3,0 -42.4,0 -14.1,0 -28.2,0 -42.3,0 -7.1,0 -14.3,0 -21.4,0 -6.8,0 -13.6,0 -20.4,0.7 -3.3,0.3 -6.7,0.8 -10,1.2 -2.6,0.4 -5.2,0.6 -7.7,1.3 -3.9,1.1 -8.1,3.1 -10.7,6.2 -2.8,3.4 -2.5,7.5 0.5,10.7 4,4.2 9.4,3.3 14.6,3.6 14,0.6 27.9,1 41.8,0.3 7,-0.4 14,-0.9 21,-1 7,-0.1 14,0 20.9,0 28.3,0 56.6,0 84.9,0 3.5,0 7,0 10.5,0 1.9,0 1.9,-3 0,-3 -27.6,0 -55.3,0 -82.9,0 -13.6,0 -27.2,-0.3 -40.8,0.3 -6.8,0.3 -13.5,0.8 -20.2,1.1 -6.8,0.3 -13.6,0.2 -20.4,0 -6.3,-0.2 -12.6,-0.6 -18.9,-0.6 -2.5,0 -5.3,0 -7.3,-1.6 -1.4,-1.1 -2.9,-2.8 -2.8,-4.7 0.2,-3.5 4.7,-5.9 7.5,-7.1 4.6,-2 9.9,-2.4 14.8,-3 13.4,-1.7 27,-1.2 40.5,-1.2 13.6,0 27.2,0 40.8,0 13.8,0 27.6,0 41.4,0 6.7,0 13.5,-0.2 20.3,0.1 6.7,0.4 13.4,1.4 20.1,1.9 3.2,0.2 6.4,0.4 9.6,0.3 1.9,-0.2 1.9,-3.2 -0.1,-3.2 z"
   id="path190" />
	</g>
</g>
<g
   id="g200"
   transform="translate(-556.35084,-49.860856)">
	<g
   id="g198">
		<path
   class="st0"
   d="m 757.9,445.2 c -8.5,0.7 -17.1,-0.6 -25.5,-1.7 -8.7,-1.2 -17.4,-1.9 -26.2,-2 -9.3,-0.1 -18.5,0.2 -27.8,-0.6 -8.9,-0.7 -17.8,-2.1 -26.6,-3.5 -8.9,-1.4 -17.9,-2.7 -26.9,-3.4 -4.9,-0.4 -9.8,-0.3 -14.7,-0.5 -8.2,-0.3 -16.5,-0.6 -24.7,-0.1 -4.2,0.3 -8.5,0.7 -12.6,1.8 -2.9,0.8 -6.2,2 -8.1,4.5 -1.8,2.5 -1.2,5.7 0.4,8.2 2.4,3.9 6.4,6.3 10.6,7.9 5,2 10.4,3 15.8,3.6 5.5,0.7 11,0.9 16.6,1 4.4,0.1 8.9,0 13.3,-0.1 8.1,0 16.1,-0.1 24.2,-0.5 17.8,-1 35.6,-3.9 53.5,-2.9 8.1,0.4 16.1,1.7 24.1,3.2 7.9,1.4 15.8,2.8 23.8,3.4 3.6,0.2 7.3,0.3 10.9,-0.1 1.9,-0.2 1.9,-3.2 0,-3 -15.2,1.5 -30.3,-3 -45.3,-5.2 -8.4,-1.2 -16.9,-1.7 -25.4,-1.5 -8.7,0.2 -17.3,1.3 -25.9,2 -9,0.8 -18,1.4 -27.1,1.6 -5.8,0.1 -11.5,0.1 -17.3,0.1 -10.3,0.1 -20.8,0.1 -31,-1.9 -4.7,-0.9 -9.6,-2.2 -13.7,-4.9 -1.6,-1 -3.1,-2.3 -4.2,-3.9 -0.4,-0.6 -0.9,-1.5 -1,-2 -0.1,-0.3 -0.2,-0.6 -0.2,-0.9 -0.1,-0.4 -0.1,-0.2 -0.1,-0.7 0,-0.8 0.3,-1.6 0.9,-2.2 0.7,-0.8 1.9,-1.5 3,-1.9 3.3,-1.4 7.1,-2 10.7,-2.4 8.4,-0.9 17,-0.7 25.4,-0.4 2.6,0.1 5.2,0.3 7.8,0.3 8.9,0 17.8,1 26.6,2.2 8.8,1.2 17.5,2.7 26.3,3.9 8.8,1.1 17.7,1.7 26.6,1.7 9.1,0 18.2,-0.2 27.2,0.6 8.3,0.7 16.5,2.3 24.7,3 4,0.3 8,0.4 12,0.1 1.8,0 1.9,-3 -0.1,-2.8 z"
   id="path196" />
	</g>
</g>
<g
   id="g206"
   transform="translate(-556.35084,-49.860856)">
	<g
   id="g204">
		<path
   class="st0"
   d="m 761,544.8 c -16.3,0 -32.8,1.6 -49.1,-0.6 -4,-0.5 -7.9,-1.3 -11.8,-2.4 -4,-1.1 -7.9,-2.5 -11.8,-3.7 -8.1,-2.5 -16.2,-4.9 -24.5,-6.9 -16.3,-4 -33.1,-6.8 -49.9,-7 -6.2,-0.1 -12.4,-0.4 -18.6,-0.4 -4.4,0.1 -8.8,0.2 -13.1,0.7 -3.8,0.4 -7.6,1 -11.1,2.4 -2.5,1 -5.3,2.5 -6.1,5.3 -1,3.2 1.1,5.7 3.7,7.3 4,2.4 8.7,3.7 13.2,4.8 4.5,1.1 9,2.1 13.6,2.9 15.4,2.7 30.9,5.1 46.3,7.4 17.5,2.6 35.1,4.1 52.6,6.2 8.3,1 16.6,2.5 24.9,3.5 8,0.9 16,1.3 24,0.9 3.8,-0.2 7.6,-0.7 11.3,-1.3 1.9,-0.3 1.1,-3.2 -0.8,-2.9 -7.6,1.4 -15.4,1.6 -23,1.3 -8,-0.3 -15.7,-1.6 -23.6,-2.7 -17,-2.5 -34.1,-4 -51.1,-6 -17.2,-2.1 -34.2,-5.1 -51.3,-7.9 -9.4,-1.5 -18.9,-3 -28,-6 -2,-0.7 -4,-1.4 -5.8,-2.4 -1.2,-0.7 -2.5,-1.5 -3,-2.5 0.1,0.3 -0.1,-0.4 -0.1,-0.6 -0.1,-0.3 0,0 0,-0.1 0,-0.1 0,-0.3 0,-0.4 0,-0.1 0,-0.5 0,-0.3 0,0.2 0,-0.1 0,-0.2 0,-0.1 0.1,-0.2 0.1,-0.3 0.1,-0.2 0.1,-0.3 0.1,-0.2 0.5,-1 1,-1.4 2,-2 2.7,-1.6 6.1,-2.3 9.3,-2.8 4.1,-0.7 8.2,-0.9 12.3,-1 6.8,-0.2 13.6,0 20.5,0.2 6,0.2 12,0.4 18,1 8.2,0.9 16.4,2.2 24.5,4 8.1,1.7 16.1,3.8 24.1,6.1 4,1.2 7.9,2.4 11.8,3.6 3.8,1.2 7.6,2.6 11.5,3.5 15.5,3.8 31.6,3.1 47.4,2.6 3.9,-0.1 7.8,-0.2 11.7,-0.2 1.7,0.1 1.7,-2.9 -0.2,-2.9 z"
   id="path202" />
	</g>
</g>
<g
   id="g212"
   transform="translate(-556.35084,-49.860856)">
	<g
   id="g210">
		<path
   class="st0"
   d="m 752.9,645.2 c -4.3,1.5 -9.2,0.6 -13.5,-0.5 -5.6,-1.4 -11,-3.4 -16.3,-5.6 -4.6,-1.8 -9.2,-3.8 -13.9,-5.3 -7.4,-2.3 -15,-3.8 -22.7,-5 -7.7,-1.2 -15.3,-3.1 -22.9,-4.7 -7.8,-1.7 -15.5,-2.7 -23.4,-3.3 -7.9,-0.6 -15.8,-0.8 -23.7,-0.9 -6.6,-0.1 -13.2,0.1 -19.7,-0.3 -5.9,-0.4 -11.8,-1 -17.7,-0.8 -5.2,0.2 -11.1,0.8 -15.2,4.4 -0.4,0.4 -0.5,1 -0.4,1.5 2.5,9.4 13,14 21.6,16.2 4.8,1.3 9.7,1.7 14.7,2 7.9,0.3 15.8,0.3 23.7,0.2 15.2,-0.2 30.6,-0.5 45.6,2.4 14,2.7 27.3,7.8 40.9,11.7 7.8,2.2 15.8,4.1 23.9,4.3 8.1,0.2 16.1,-1.1 24.1,-2 1.9,-0.2 1.9,-3.2 0,-3 -7.1,0.8 -14.2,1.9 -21.3,2 -7.2,0.1 -14.1,-1.2 -21,-2.9 -13.5,-3.4 -26.5,-8.5 -40,-11.7 -14.4,-3.4 -29,-3.9 -43.7,-3.9 -7.6,0 -15.3,0.2 -22.9,0.1 -6,-0.1 -12.2,0 -18.1,-1 -5.2,-0.9 -10.3,-2.4 -15,-4.9 -4.2,-2.3 -8.2,-5.5 -9.5,-10.3 -0.1,0.5 -0.3,1 -0.4,1.5 3.4,-3 8.8,-3.4 13.1,-3.6 5.3,-0.2 10.7,0.3 16,0.7 6,0.4 12,0.3 18.1,0.4 7.9,0.1 15.8,0.3 23.7,0.8 7.8,0.5 15.5,1.3 23.2,2.8 7.7,1.6 15.3,3.5 23,4.8 7.7,1.3 15.4,2.5 22.9,4.7 4.9,1.4 9.5,3.3 14.2,5.1 5.9,2.3 11.8,4.7 17.9,6.3 5,1.3 10.7,2.4 15.7,0.6 1.6,-0.6 0.9,-3.5 -1,-2.8 z"
   id="path208" />
	</g>
</g>
<g
   id="g218"
   transform="translate(-556.35084,-49.860856)">
	<g
   id="g216">
		<path
   class="st0"
   d="m 757.9,738.6 c -8.9,0 -17.7,0.2 -26.6,-0.3 -8,-0.4 -15.8,-1.6 -23.4,-4.2 -7.4,-2.5 -14.4,-6 -21.9,-8.2 -8,-2.3 -16.3,-3.8 -24.4,-5.7 -13.5,-3.1 -26.3,-8.6 -40.1,-10.5 -8,-1.1 -16,-1.8 -24,-1.9 -4.4,-0.1 -8.8,0 -13.2,0.5 -3.7,0.4 -7.5,1.1 -10.9,2.6 -2.5,1.1 -4.9,3 -5.6,5.7 -1,3.6 1,7.3 3.2,9.9 3.4,4 8.3,6.5 13.1,8.5 4.9,2.1 10.1,3.6 15.3,4.8 6.4,1.4 12.9,2.2 19.4,3.2 8.6,1.4 17.3,2.7 26,3.6 17.3,1.8 34.7,1.4 52,3.9 15.8,2.3 31,7.7 47,9.2 3.7,0.4 7.4,0.5 11.1,0.2 1.9,-0.1 1.9,-3.1 0,-3 -15.4,1.1 -30.5,-3.9 -45.4,-7.1 -16.3,-3.6 -32.9,-4.2 -49.6,-5 -17.2,-0.8 -34.1,-3.7 -51.1,-6.4 -10.1,-1.6 -20.4,-3.8 -29.3,-9 -3.6,-2.1 -7.6,-5.1 -8.7,-9.4 -0.2,-0.8 -0.2,-0.9 -0.2,-1.7 0,-0.1 0,-0.3 0,-0.4 0,-0.1 0,0.2 0,-0.1 0.1,-0.3 0.1,-0.6 0.2,-0.9 0,-0.1 -0.1,0.2 0,-0.1 0.1,-0.1 0.1,-0.3 0.2,-0.4 0.1,-0.1 0.1,-0.2 0.2,-0.3 0.2,-0.3 0,-0.1 0.2,-0.2 0.2,-0.2 0.4,-0.4 0.5,-0.6 0.1,-0.1 0.7,-0.6 0.6,-0.5 2.5,-1.8 5.6,-2.6 8.6,-3.1 4,-0.7 8.1,-0.9 12.2,-1 8.3,-0.1 16.5,0.5 24.7,1.5 3.1,0.4 6.2,0.8 9.4,1.6 8.3,1.8 16.4,4.7 24.5,7 7.9,2.3 16,3.8 24,5.6 3.9,0.9 7.9,1.9 11.7,3.1 3.8,1.2 7.4,2.8 11.1,4.3 6.7,2.7 13.6,5.1 20.8,6.3 8.4,1.3 16.9,1.4 25.4,1.4 4.3,0 8.5,0 12.8,0 2.2,0.1 2.2,-2.9 0.2,-2.9 z"
   id="path214" />
	</g>
</g>
<g
   id="g224"
   transform="translate(-556.35084,-49.860856)">
	<g
   id="g222">
		<path
   class="st0"
   d="m 761,838.9 c -5.7,0.4 -11.4,-0.3 -16.9,-1.4 -6.1,-1.1 -12.1,-2.7 -18.1,-4.4 -13.3,-3.9 -26.1,-9.2 -39.3,-13.5 -14.5,-4.7 -29.5,-7.6 -44.5,-10.3 -7.6,-1.3 -15.3,-2.6 -22.9,-3.9 -6.3,-1.1 -12.6,-2.4 -18.9,-3.6 -5.3,-1 -10.7,-1.9 -16.1,-2 -4.5,-0.1 -10,0.6 -13,4.4 -2.8,3.5 -0.8,7.9 1.6,11 2.7,3.4 6.2,6.3 10,8.5 10.8,6.3 23.6,9 35.9,10.7 13.2,1.9 26.6,2.4 39.9,3.7 7.8,0.7 15.5,1.6 23.2,2.7 7.3,1.1 14.5,2.8 21.7,4.7 7.3,1.9 14.6,4 22.1,5.5 6.9,1.5 13.9,2.1 20.7,3.9 3.3,0.9 6.5,2 9.5,3.6 1.7,0.9 3.2,-1.7 1.5,-2.6 -6.1,-3.1 -12.7,-4.6 -19.5,-5.8 -7.1,-1.2 -14.1,-2.5 -21,-4.3 -7.2,-1.8 -14.3,-3.8 -21.5,-5.5 -7.2,-1.7 -14.5,-2.8 -21.8,-3.7 -13.8,-1.7 -27.7,-2.5 -41.5,-3.7 -12.6,-1.2 -25.3,-2.9 -37.3,-7.1 -4.8,-1.7 -9.6,-3.9 -13.7,-7 -3,-2.3 -6.8,-5.4 -7.9,-9.2 -1.2,-4.1 3.7,-6.2 7,-6.6 5.1,-0.7 10.5,0.2 15.5,1 5.4,0.9 10.7,2.1 16.1,3.1 7.5,1.4 15,2.6 22.5,3.9 14.7,2.5 29.5,5.1 43.9,9.1 13.9,3.9 27.3,9.5 41.1,14 11.1,3.6 22.5,6.7 34.1,7.7 2.5,0.2 5.1,0.3 7.6,0.1 1.9,-0.1 1.9,-3.1 0,-3 z"
   id="path220" />
	</g>
</g>
<g
   id="g230"
   transform="translate(-556.35084,-49.860856)">
	<g
   id="g228">
		<path
   class="st0"
   d="m 754.1,943.1 c -14.3,0.4 -28.3,-3.5 -41.5,-8.7 -6.8,-2.7 -13.4,-5.7 -19.9,-8.9 -6.2,-3 -12.3,-6.2 -18.7,-8.7 -13.1,-5.2 -27,-7.9 -40.8,-10.2 -12.1,-2 -24.2,-4 -36.1,-7 -5,-1.3 -10.2,-2.5 -15.4,-2.8 -4.2,-0.3 -8.6,0.2 -11.6,3.4 -6.3,6.6 5.1,13.6 9.9,16.3 3.9,2.2 8.1,4.1 12.4,5.5 6.9,2.2 14.1,3.3 21.2,4.7 7.3,1.5 14.5,3.9 21.6,6.1 7.4,2.4 14.7,4.8 22.1,7.2 14.5,4.6 29.2,8.7 44,12.3 14.7,3.5 29.7,6.3 44.8,7.3 3.7,0.2 7.4,0.4 11.1,0.4 1.9,0 1.9,-3 0,-3 -14.9,0 -29.7,-2.1 -44.3,-5.1 -14.6,-3.1 -29,-6.9 -43.3,-11.1 -14.2,-4.2 -28.2,-9.2 -42.4,-13.5 -6.9,-2.1 -13.9,-3.6 -21,-5 -6.7,-1.3 -13.3,-2.8 -19.5,-5.7 -3.1,-1.5 -6.2,-3.1 -9,-5 -2.3,-1.5 -6,-4.1 -6.3,-6.9 -0.3,-3.2 4.5,-4.8 7.2,-4.9 4.8,-0.2 9.7,0.8 14.3,1.9 4.4,1 8.8,2.3 13.2,3.2 6.7,1.4 13.5,2.5 20.3,3.6 13.5,2.2 27.1,4.5 40.1,8.8 6.5,2.1 12.5,5 18.7,8 6.3,3.1 12.6,6.1 19.1,8.9 12.7,5.5 25.8,10.2 39.6,11.6 3.4,0.3 6.8,0.5 10.1,0.4 2,-0.2 2,-3.2 0.1,-3.1 z"
   id="path226" />
	</g>
</g>
<g
   id="g236"
   transform="translate(-556.35084,-49.860856)">
	<g
   id="g234">
		<path
   class="st0"
   d="m 573.4,319.2 c 2.5,7.2 0.7,15.2 0.7,22.6 0,1.9 3,1.9 3,0 0,-7.7 1.8,-15.9 -0.8,-23.4 -0.6,-1.8 -3.5,-1 -2.9,0.8 z"
   id="path232" />
	</g>
</g>
<g
   id="g242"
   transform="translate(-556.35084,-49.860856)">
	<g
   id="g240">
		<path
   class="st0"
   d="m 578,362 c -1.3,3.3 -1.7,6.9 -1.9,10.4 -0.3,4.2 -0.2,8.3 0.1,12.5 0.6,8.7 2.2,17.2 3.1,25.8 0.6,6.1 1,12.2 1,18.3 0,1.9 3,1.9 3,0 0,-10.4 -1.1,-20.8 -2.7,-31.1 -1.2,-7.7 -1.9,-15.6 -1.6,-23.5 0.1,-3.9 0.5,-8 1.9,-11.7 0.7,-1.7 -2.2,-2.4 -2.9,-0.7 z"
   id="path238" />
	</g>
</g>
<g
   id="g248"
   transform="translate(-556.35084,-49.860856)">
	<g
   id="g246">
		<path
   class="st0"
   d="m 578.4,458.5 c 5.5,6.1 6.9,15.1 7.5,23 0.7,9.5 0,19 -1,28.5 -0.5,4.5 -1,8.9 -1.6,13.3 -0.2,1.9 2.8,1.9 3,0 1,-8.8 2.2,-17.5 2.6,-26.4 0.5,-9.5 0.4,-19.3 -2.2,-28.5 -1.2,-4.4 -3.2,-8.6 -6.2,-12.1 -1.3,-1.4 -3.4,0.8 -2.1,2.2 z"
   id="path244" />
	</g>
</g>
<g
   id="g254"
   transform="translate(-556.35084,-49.860856)">
	<g
   id="g252">
		<path
   class="st0"
   d="m 578.7,547 c 0,11 0,22 0,33 0,8.8 1,17.6 1,26.4 0,4.6 -0.3,9.3 -1.7,13.7 -0.6,1.8 2.3,2.6 2.9,0.8 2.6,-8.3 1.9,-17.4 1.4,-25.9 -0.6,-9.7 -0.5,-19.3 -0.5,-29 0,-6.3 0,-12.7 0,-19 -0.1,-1.9 -3.1,-1.9 -3.1,0 z"
   id="path250" />
	</g>
</g>
<g
   id="g260"
   transform="translate(-556.35084,-49.860856)">
	<g
   id="g258">
		<path
   class="st0"
   d="m 577.3,640.9 c 2.5,9 1.5,18.3 1.3,27.5 -0.2,9.5 1.2,18.9 1.8,28.3 0.4,5.5 0.6,11 0.6,16.6 0,1.9 3,1.9 3,0 0,-9.9 -0.8,-19.7 -1.7,-29.5 -0.4,-4.7 -0.8,-9.3 -0.8,-14 0.1,-4.7 0.4,-9.4 0.4,-14.1 0,-5.2 -0.4,-10.5 -1.8,-15.5 -0.5,-2 -3.4,-1.2 -2.8,0.7 z"
   id="path256" />
	</g>
</g>
<g
   id="g266"
   transform="translate(-556.35084,-49.860856)">
	<g
   id="g264">
		<path
   class="st0"
   d="m 577.9,736 c 0.2,0.1 0.4,0.2 0.6,0.3 -0.3,-0.2 0.2,0.2 0.3,0.3 0.2,0.2 0.1,0.1 0.1,0.1 0.1,0.1 0.1,0.2 0.2,0.3 0.2,0.3 0.3,0.5 0.5,0.8 0.1,0.3 0.1,0.2 0.3,0.6 0.1,0.4 0.3,0.7 0.4,1.1 0.2,0.8 0.4,1.6 0.6,2.4 0.8,4.1 1,8.4 1.1,12.6 0.2,10 -0.4,19.9 -1,29.9 -0.2,3.6 -0.5,7.2 -0.5,10.8 0,1.9 3,1.9 3,0 0,-8 0.9,-16.1 1.2,-24.1 0.4,-9.7 0.9,-19.9 -0.8,-29.5 -0.5,-2.7 -1.3,-6.9 -4.2,-8.2 -2,-0.8 -3.5,1.8 -1.8,2.6 z"
   id="path262" />
	</g>
</g>
<g
   id="g272"
   transform="translate(-556.35084,-49.860856)">
	<g
   id="g270">
		<path
   class="st0"
   d="m 581,828.1 c 0,17.4 1.4,34.9 0.6,52.3 -0.2,4.9 -0.6,9.8 -1.3,14.7 -0.1,0.8 0.2,1.6 1,1.8 0.7,0.2 1.7,-0.2 1.8,-1 2.4,-17.5 1.6,-35.1 1.1,-52.7 -0.1,-5 -0.3,-10 -0.3,-15.1 0.1,-1.9 -2.9,-1.9 -2.9,0 z"
   id="path268" />
	</g>
</g>
<g
   id="g278"
   transform="translate(-556.35084,-49.860856)">
	<g
   id="g276">
		<path
   class="st0"
   d="m 576.4,922.4 c 0,3.2 0.3,6.4 0.1,9.5 -0.1,1.1 -0.4,2.8 -0.8,3.7 -0.1,0.3 -0.3,0.5 -0.4,0.8 -0.2,0.4 -0.2,0.4 -0.5,0.6 -0.5,0.5 -0.7,0.7 -1.3,1 -1.5,0.8 -3.7,0.7 -5.5,0.5 -0.8,-0.1 -1.5,0.8 -1.5,1.5 0,0.9 0.7,1.4 1.5,1.5 3.7,0.5 7.6,-0.1 9.8,-3.5 1.8,-2.8 1.9,-6.5 1.8,-9.7 0,-2 -0.1,-3.9 -0.1,-5.9 -0.1,-2 -3.1,-2 -3.1,0 z"
   id="path274" />
	</g>
</g>
<g
   id="g284"
   transform="translate(-556.35084,-49.860856)">
	<g
   id="g282">
		<path
   class="st0"
   d="m 562.6,319.5 c 2.8,0 5.6,0 8.4,0 0.8,0 1.5,-0.7 1.5,-1.5 0,-0.8 -0.7,-1.5 -1.5,-1.5 -2.8,0 -5.6,0 -8.4,0 -0.8,0 -1.5,0.7 -1.5,1.5 0.1,0.8 0.7,1.5 1.5,1.5 z"
   id="path280" />
	</g>
</g>
<g
   id="g290"
   transform="translate(-556.35084,-49.860856)">
	<g
   id="g288">
		<path
   class="st0"
   d="m 779.4,494.9 c 7,0 13.9,-1.1 20.8,-1.9 7.2,-0.9 14.3,-1.2 21.5,-1.1 7.2,0 14.4,0.1 21.5,-0.2 7.2,-0.3 14.4,-1.1 21.6,-1.6 14.6,-1.1 29.2,-1.8 43.8,-3 14.4,-1.2 28.6,-3.3 42.8,-5.9 14.5,-2.7 29.1,-4.9 43.8,-6.3 14.2,-1.4 28.5,-1.8 42.8,-1.5 14.4,0.3 28.8,0.9 43.1,0 14.3,-0.9 28.6,-3.2 42.9,-5.2 12.3,-1.7 24.6,-2.9 36.9,-4.6 4.2,-0.6 8.5,-1.1 12.8,-1 2.9,0.1 7.4,0.3 9,3.1 1.7,2.9 0.2,6.2 -2.4,7.8 -3.2,1.9 -7.1,2.6 -10.8,3.1 -3.5,0.5 -7.1,0.8 -10.6,1.6 -6.9,1.5 -13.8,3 -20.8,4.5 -13.9,2.9 -28,5.3 -42.2,6.1 -7.1,0.4 -14.1,0.1 -21.2,1 -6.3,0.8 -12.6,2 -18.9,3.2 -27.4,5.3 -55.7,4 -83.4,3.1 -28.9,-0.9 -58,-2.4 -86.9,0.7 -28.4,3.1 -56.2,11 -84.7,13.3 -6.5,0.5 -13.3,0.1 -19.6,2 -1.8,0.5 -1.1,3.4 0.8,2.9 6.7,-2 14.1,-1.4 21.1,-2.1 7.2,-0.6 14.4,-1.6 21.6,-2.8 14.3,-2.3 28.6,-5.4 42.9,-7.8 29.4,-4.9 59,-4.8 88.6,-3.8 14.7,0.5 29.4,1.1 44.1,1.2 13.9,0.1 28,0.2 41.8,-1.4 13.5,-1.6 26.6,-5.5 40.2,-6.1 7.2,-0.3 14.4,-0.3 21.6,-1 7,-0.7 14,-1.7 20.9,-2.9 7.2,-1.3 14.4,-2.8 21.5,-4.3 5.7,-1.2 11.4,-2.8 17.2,-3.6 6.5,-0.9 15.7,-0.9 20.5,-6.2 2.3,-2.5 2.8,-6.3 1.4,-9.4 -1.4,-3 -4.8,-4.3 -7.9,-4.8 -8.2,-1.3 -16.7,0.8 -24.9,1.7 -29.4,3.1 -58.5,9.3 -88.2,9.3 -14.6,0 -29.3,-0.8 -43.9,-0.5 -14.5,0.3 -29,1.7 -43.4,3.7 -14.8,2 -29.4,5.2 -44.2,7.4 -14.9,2.2 -29.9,3.2 -44.9,4.2 -7.4,0.5 -14.8,0.9 -22.1,1.5 -7.3,0.5 -14.6,1.4 -22,1.7 -14.6,0.6 -29.3,-0.5 -43.8,1.3 -6.9,0.9 -13.8,1.9 -20.8,1.9 -1.8,-0.3 -1.9,2.7 0.1,2.7 z"
   id="path286" />
	</g>
</g>
<g
   id="g296"
   transform="translate(-556.35084,-49.860856)">
	<g
   id="g294">
		<path
   class="st0"
   d="m 952.7,497.3 c -2.1,4 -2.7,8.4 -3.1,12.8 -0.4,4.7 -0.8,9.2 -2.3,13.7 -1.5,4.8 -3.7,9.2 -5.7,13.8 -2.1,4.6 -3.9,9.4 -5.9,14.1 -4.1,9.7 -8.2,19.4 -11.7,29.4 -3.6,9.9 -6.4,20 -8.3,30.3 -4.1,21.6 -6.5,43.5 -9.4,65.3 -1.5,11 -3.1,22 -5,32.9 -0.9,5.1 -1.5,10.2 -2.2,15.4 -0.6,4.6 -1.2,9.4 -2.6,13.9 -1.6,5 -3.7,9.7 -5.1,14.8 -0.8,3.1 -2.7,11 2.9,11 5,0 5.4,-8.2 5.7,-11.7 0.2,-2.5 0.3,-5.1 0.3,-7.7 0.1,-3.5 0.7,-6.9 1.7,-10.3 1.4,-4.8 3.3,-9.4 5.2,-14.1 1,-2.4 2,-4.8 2.5,-7.3 0.5,-2.4 0.8,-4.9 0.9,-7.3 0.4,-5.1 0.6,-10 2.4,-14.8 1.6,-4.5 3.8,-8.7 5.7,-13.1 1.9,-4.6 3.1,-9.3 3.7,-14.3 0.6,-5.3 0.7,-10.7 1.7,-16 0.5,-2.5 1.2,-4.9 2.2,-7.2 1,-2.2 2.2,-4.4 3,-6.7 1.8,-4.8 0.8,-9.4 0.8,-14.3 0,-5 1.4,-10.1 2.8,-14.9 1.4,-4.8 3,-9.6 4.2,-14.5 2.5,-9.9 3.7,-20.2 6.5,-30 1.4,-4.8 3.2,-9.3 5.3,-13.8 2,-4.3 4.2,-8.5 5.8,-12.9 1.5,-4.1 2.3,-8.4 3.4,-12.6 1.1,-4.1 2.4,-8.2 3.3,-12.4 0.8,-3.8 1.4,-7.8 0.9,-11.7 -0.3,-1.9 -3.2,-1.1 -2.9,0.8 0.5,3.9 -0.3,8 -1.2,11.7 -1,4.1 -2.3,8.1 -3.3,12.1 -1.1,4.2 -1.9,8.5 -3.6,12.6 -1.7,4.3 -3.9,8.4 -5.8,12.6 -4.2,8.9 -6.4,18.3 -8.3,28 -0.9,5 -1.8,10 -3,14.9 -1.2,4.7 -2.8,9.4 -4.1,14 -1.4,4.8 -2.6,9.7 -3,14.6 -0.4,4.7 1.1,9.4 -0.4,14 -1.5,4.7 -4.2,8.7 -5.3,13.5 -1.1,5 -1.4,10.2 -1.8,15.3 -0.4,5.1 -1.3,9.9 -3.1,14.7 -1.7,4.3 -3.8,8.4 -5.5,12.7 -1.9,4.6 -2.8,9.2 -3.1,14.1 -0.3,5 -0.6,9.8 -2.4,14.5 -3.4,8.6 -7.6,17.2 -8.1,26.6 -0.3,4.7 0,9.5 -1.1,14.2 -0.2,1 -0.5,2 -1,2.9 -0.2,0.3 -0.3,0.5 -0.6,0.8 0,0 -0.3,0.1 -0.4,0.1 -0.2,0 -0.4,-0.1 -0.5,-0.1 0.3,0.1 -0.1,-0.2 0,0 -0.1,-0.1 -0.2,-0.5 -0.2,-0.2 -0.3,-0.8 -0.3,-1.6 -0.2,-2.5 0.2,-2.6 1,-5.1 1.8,-7.6 0.9,-2.7 1.8,-5.3 2.8,-8 2.6,-7.1 3.5,-14.6 4.5,-22.1 1.4,-10.6 3.4,-21 4.9,-31.6 3.1,-21.3 5.3,-42.7 8.7,-63.9 1.7,-10.3 3.5,-20.7 6.4,-30.8 2.9,-9.9 6.6,-19.5 10.5,-29 3.8,-9.4 7.5,-18.8 11.7,-28.1 2,-4.3 4,-8.7 5.4,-13.2 1.4,-4.4 1.9,-8.8 2.3,-13.4 0.4,-4.2 0.8,-8.6 2.8,-12.4 1,-1.8 -1.6,-3.4 -2.5,-1.6 z"
   id="path292" />
	</g>
</g>
<g
   id="g302"
   transform="translate(-556.35084,-49.860856)">
	<g
   id="g300">
		<path
   class="st0"
   d="m 990.1,490.4 c 0,31.4 -6.2,62.5 -6.2,94 0,7.9 0.3,15.8 0.5,23.7 0.2,8.1 0.4,16.2 0.5,24.3 0.3,16.1 0.5,32.1 0.5,48.2 0,7.2 0,14.5 0.6,21.7 0.6,6.9 1.6,13.9 4.3,20.3 0.7,1.7 3,0.4 2.7,-1.2 -2.6,-14.2 -3.1,-28.8 -3.2,-43.2 -0.1,-14.8 0.2,-29.6 0.2,-44.3 0,-15.8 0.2,-31.5 2.5,-47.1 2.2,-14.9 4.9,-29.7 5.2,-44.8 0.1,-8.9 0.2,-17.7 0.4,-26.6 0.2,-9.1 0.4,-18.1 0.4,-27.2 0,-1.9 -3,-1.9 -3,0 0,16.1 -0.7,32.2 -0.8,48.3 0,7.8 -0.4,15.4 -1.3,23.1 -0.9,7.4 -2,14.7 -3.2,22 -1.2,7.8 -2.2,15.5 -2.7,23.4 -0.5,7.9 -0.6,15.9 -0.6,23.9 0,14.9 -0.2,29.8 -0.2,44.6 0,16.2 0.4,32.6 3.4,48.6 0.9,-0.4 1.8,-0.8 2.7,-1.2 -2.4,-5.6 -3.3,-11.9 -3.8,-18 -0.5,-6.2 -0.6,-12.3 -0.6,-18.5 0,-15.9 -0.2,-31.8 -0.5,-47.7 -0.3,-15.8 -0.8,-31.7 -1.1,-47.5 -0.3,-15.6 1,-31.2 2.6,-46.8 1.7,-17.3 3.6,-34.6 3.6,-52 0.1,-2 -2.9,-2 -2.9,0 z"
   id="path298" />
	</g>
</g>
<g
   id="g308"
   transform="translate(-556.35084,-49.860856)">
	<g
   id="g306">
		<path
   class="st0"
   d="m 1030.6,485 c 0,17.4 -1,34.7 -2.2,52.1 -1.2,17.4 -2.2,34.8 -3,52.2 -0.8,17.4 -1.7,34.9 -2.1,52.3 -0.2,8 -0.2,15.9 -0.3,23.9 -0.1,4.4 -0.2,8.8 -0.2,13.2 0,5.3 0.2,10.5 0.9,15.8 0.6,4.1 1.4,8.7 4.1,12.1 0.5,0.7 1.1,1.2 1.8,1.7 0.6,0.5 1.7,0.1 2.1,-0.5 2.7,-4.8 2.2,-11.1 1.9,-16.4 -0.2,-2.9 -0.5,-5.7 -0.6,-8.6 -0.1,-3.7 0,-7.4 0,-11.1 0,-8.2 -0.2,-16.4 0.2,-24.5 0.4,-7.7 1.3,-15.3 2.6,-22.9 1.3,-7.7 3,-15.2 4.6,-22.8 1.5,-7.2 2.5,-14.5 3,-21.8 1.1,-14.8 0.2,-29.9 -3,-44.4 -0.8,-3.5 -1.7,-6.9 -2.8,-10.3 -1.2,-3.6 -2.4,-7.2 -3,-11 -1.3,-7.7 -1,-15.5 -0.8,-23.3 0,-1.9 0.1,-3.8 0.1,-5.8 -0.2,-1.8 -3.2,-1.8 -3.3,0.1 0,7.7 -0.5,15.4 0.1,23.1 0.3,3.8 0.8,7.5 1.8,11.2 0.9,3.6 2.3,7 3.3,10.6 3.9,14.1 5.3,28.8 4.8,43.4 -0.2,7.3 -1,14.6 -2.2,21.9 -1.3,7.5 -3.2,15 -4.6,22.5 -1.4,7.4 -2.5,14.9 -3.2,22.4 -0.7,7.9 -0.7,15.8 -0.7,23.8 0,7.3 -0.3,14.7 0.2,21.9 0.4,5.6 1.3,11.7 0.1,17.2 -0.2,1.1 -0.6,2.2 -1.2,3.2 0.7,-0.2 1.4,-0.4 2.1,-0.5 -2.6,-2 -3.5,-6.6 -4.1,-9.8 -0.9,-5 -1.1,-10.2 -1.2,-15.2 -0.1,-4.6 0.1,-9.1 0.2,-13.6 0.1,-7 0.1,-14.1 0.2,-21.1 0.4,-17.2 1.2,-34.4 2,-51.6 0.8,-17.2 1.7,-34.3 2.9,-51.5 1.1,-17.1 2.3,-34.2 2.5,-51.3 0,-2.1 0,-4.3 0,-6.4 0.1,-2.1 -2.9,-2.1 -3,-0.2 z"
   id="path304" />
	</g>
</g>
<g
   id="g314"
   transform="translate(-556.35084,-49.860856)">
	<g
   id="g312">
		<path
   class="st0"
   d="m 1052.9,483.9 c 3.6,13 11.5,24.1 15.5,36.9 4.1,13.4 5.4,27.3 7.3,41.1 1.8,13.8 4.4,27.5 7.5,41.1 1.5,6.7 3.3,13.4 5.5,19.9 2.3,6.6 5.1,13 7.6,19.5 2.7,7 4.7,14.2 6.5,21.6 1.8,7.3 3.3,15 1.4,22.4 1,0 1.9,0 2.9,0 -2.5,-13.1 -8.2,-25.3 -10.2,-38.5 -0.5,-3.4 -0.6,-6.8 -0.9,-10.2 -0.3,-3.2 -0.6,-6.4 -1.1,-9.7 -1,-6.5 -2.6,-12.8 -4.6,-19 -2.1,-6.7 -3.5,-13.5 -5.4,-20.2 -1,-3.3 -2.1,-6.5 -3.5,-9.6 -1.4,-3.1 -2.8,-6.1 -4,-9.3 -5,-13.4 -6.9,-27.6 -10.3,-41.5 -0.9,-3.6 -1.9,-7.2 -2.7,-10.9 -0.8,-3.6 -1.4,-7.2 -2.1,-10.8 -1.3,-7.2 -2.6,-14.4 -5.1,-21.3 -0.7,-1.8 -3.6,-1 -2.9,0.8 4.4,12.2 5.2,25.3 8.5,37.8 3.7,13.9 5.6,28.3 10,42 1,3.1 2.1,6.1 3.4,9.1 1.4,3.3 3.1,6.6 4.3,10 2.3,6.4 3.5,13.1 5.4,19.7 1.8,6.5 4,12.8 5.3,19.4 1.3,6.5 1.7,13 2.2,19.6 1.2,15 8,28.7 10.7,43.3 0.3,1.5 2.5,1.4 2.9,0 1.7,-6.6 0.9,-13.5 -0.5,-20.1 -1.4,-6.5 -3,-13.1 -5.2,-19.4 -2.3,-6.7 -5.2,-13.2 -7.7,-19.9 -2.5,-6.4 -4.5,-13 -6.2,-19.7 -3.4,-13.6 -6.1,-27.5 -8.1,-41.3 -2.1,-13.9 -3.1,-28 -6.6,-41.7 -1.9,-7.5 -4.8,-14.5 -8.2,-21.4 -3.3,-6.7 -6.8,-13.4 -8.8,-20.7 -0.4,-1.7 -3.3,-0.9 -2.8,1 z"
   id="path310" />
	</g>
</g>
<g
   id="g320"
   transform="translate(-556.35084,-49.860856)">
	<g
   id="g318">
		<path
   class="st0"
   d="m 787.8,625.1 c 18.3,-1.1 35.4,-8.4 53,-13.1 9,-2.4 18.3,-3.7 27.5,-5.2 4.8,-0.8 9.5,-1.6 14.3,-2.7 4.6,-1 9.1,-2.4 13.7,-3.3 10.4,-2 21.2,-2.3 31.3,-5.7 1.8,-0.6 1,-3.5 -0.8,-2.9 -9,3 -18.4,3.6 -27.6,5 -4.6,0.7 -9.1,1.9 -13.7,3.1 -4.6,1.1 -9.3,2.1 -14,2.9 -9.3,1.6 -18.7,2.7 -27.8,4.9 -8.8,2.1 -17.4,5.1 -26.1,7.7 -9.7,3 -19.7,5.7 -29.9,6.3 -1.8,0.1 -1.8,3.2 0.1,3 z"
   id="path316" />
	</g>
</g>
<g
   id="g326"
   transform="translate(-556.35084,-49.860856)">
	<g
   id="g324">
		<path
   class="st0"
   d="m 947.5,593.7 c 2.6,0.4 5.1,0 7.6,-0.7 2.3,-0.6 4.6,-1.2 6.9,-0.8 0.8,0.1 1.6,-0.2 1.8,-1 0.2,-0.7 -0.2,-1.7 -1,-1.8 -2.6,-0.4 -5.1,0 -7.6,0.6 -2.3,0.6 -4.6,1.2 -6.9,0.9 -0.8,-0.1 -1.6,0.2 -1.8,1 -0.2,0.6 0.2,1.7 1,1.8 z"
   id="path322" />
	</g>
</g>
<g
   id="g332"
   transform="translate(-556.35084,-49.860856)">
	<g
   id="g330">
		<path
   class="st0"
   d="m 998.4,586.1 c 5.4,-0.6 11,-0.1 16.1,-2.5 0.7,-0.3 0.9,-1.4 0.5,-2.1 -0.4,-0.8 -1.3,-0.9 -2.1,-0.5 -4.5,2.1 -9.8,1.5 -14.6,2.1 -0.8,0.1 -1.5,0.6 -1.5,1.5 0.1,0.7 0.8,1.6 1.6,1.5 z"
   id="path328" />
	</g>
</g>
<g
   id="g338"
   transform="translate(-556.35084,-49.860856)">
	<g
   id="g336">
		<path
   class="st0"
   d="m 1047.1,576.1 c 9.6,-2.2 19.5,-1.9 29.1,-3.8 1.9,-0.4 1.1,-3.3 -0.8,-2.9 -9.6,2 -19.5,1.6 -29.1,3.8 -1.9,0.4 -1.1,3.3 0.8,2.9 z"
   id="path334" />
	</g>
</g>
<g
   id="g344"
   transform="translate(-556.35084,-49.860856)">
	<g
   id="g342">
		<path
   class="st0"
   d="m 1094.2,569.2 c 9.1,0.5 18.2,-0.8 27,-2.7 8.6,-1.8 17.1,-4.1 25.6,-6.2 4.5,-1.1 9,-2.3 13.1,-4.4 0.9,-0.5 0.9,-1.7 0.3,-2.4 -2.7,-3.2 -7.1,-4.8 -11,-6 -4.7,-1.5 -9.5,-2.5 -14.3,-3.5 -5.4,-1.1 -10.7,-2.3 -16.2,-3 -7.4,-0.9 -14.8,-0.7 -22.2,-0.9 -8.1,-0.2 -16.3,-0.8 -24.2,-2.9 -1.9,-0.5 -2.7,2.4 -0.8,2.9 6.9,1.8 14,2.6 21.2,2.9 7.2,0.3 14.3,0 21.5,0.6 6,0.5 11.8,1.7 17.6,2.9 4.7,1 9.4,1.9 14.1,3.2 4.1,1.2 9.3,2.6 12.2,6 0.1,-0.8 0.2,-1.6 0.3,-2.4 -3.5,1.8 -7.4,2.9 -11.2,3.8 -4,1 -7.9,2 -11.9,3 -8.7,2.2 -17.4,4.4 -26.3,5.5 -4.9,0.6 -9.9,0.9 -14.8,0.6 -1.9,-0.1 -1.9,2.9 0,3 z"
   id="path340" />
	</g>
</g>
<g
   id="g350"
   transform="translate(-556.35084,-49.860856)">
	<g
   id="g348">
		<path
   class="st0"
   d="m 995.4,551.4 c 2.5,-1.8 5.3,-3.1 8.1,-4.2 2.8,-1.2 5.6,-2.2 8.4,-3.3 0.8,-0.3 1.3,-1 1,-1.8 -0.2,-0.7 -1.1,-1.3 -1.8,-1 -3,1.1 -6,2.2 -8.9,3.5 -2.9,1.2 -5.8,2.5 -8.3,4.3 -0.7,0.5 -1,1.3 -0.5,2.1 0.3,0.5 1.3,0.9 2,0.4 z"
   id="path346" />
	</g>
</g>
<g
   id="g356"
   transform="translate(-556.35084,-49.860856)">
	<g
   id="g354">
		<path
   class="st0"
   d="m 1039.8,540.9 c 3.3,0 6.6,0.1 9.9,0.6 3.3,0.5 6.5,1.3 9.6,2.4 1.8,0.6 2.6,-2.3 0.8,-2.9 -6.6,-2.3 -13.3,-3.1 -20.3,-3.1 -1.9,0 -1.9,3 0,3 z"
   id="path352" />
	</g>
</g>
<g
   id="g362"
   transform="translate(-556.35084,-49.860856)">
	<g
   id="g360">
		<path
   class="st0"
   d="m 1015.3,460.5 c 0,-28.5 0.1,-57 0,-85.5 0,-7 0.1,-14.2 -0.9,-21.1 -0.3,-2.2 -1.1,-4.3 -1.7,-6.4 -0.7,-2.3 -1.8,-5.6 -0.5,-8 2,-3.8 10.2,-5.5 11.5,-0.4 1.1,4.3 -0.6,8.8 2.2,12.7 4.9,7 15.5,8 23.3,9.1 4.9,0.7 9.8,1.7 14.7,2.3 6.9,0.8 13.9,1.1 20.8,1.1 13.4,0.1 26.8,-0.6 40.3,-0.1 6.7,0.3 13.3,0.6 20,0.5 6.1,-0.1 12.6,-0.3 18.4,-2 4.3,-1.2 7.7,-3.8 10.5,-7.3 2.4,-3.1 3.9,-6.9 6.4,-10 0.9,-1.1 2.1,-2.4 3.5,-1.5 1.6,0.9 1.7,3 1.8,4.6 0.4,3.7 0.3,7.4 0.9,11 2.1,13.5 1.2,27.4 1.2,41.1 0,14.2 0.2,28.4 0.4,42.6 0.2,13.8 0,27.5 -1.3,41.2 -1.3,13.9 -1,27.9 -1.4,41.8 -0.3,13.8 -2.6,27.5 -2.2,41.3 0.2,7 0.8,13.9 0.8,20.9 0,7 -0.4,14.1 -0.3,21.1 0.1,6.7 1,13.3 1.7,20 0.7,7 1,14 1.1,21 0,7 -0.3,14 -0.5,21 -0.2,6.8 0,13.5 -0.1,20.3 -0.2,14.1 -2.5,28.1 -3.3,42.2 -0.4,6.7 -0.4,13.4 0.4,20.1 0.8,6.7 2.2,13.3 2.8,20.1 0.6,6.4 0.1,12.8 1.1,19.1 0.3,1.9 3.2,1.1 2.9,-0.8 -1.1,-7.2 -0.5,-14.5 -1.4,-21.7 -0.9,-6.7 -2.2,-13.3 -2.8,-20.1 -1.3,-14 0.8,-28.3 2.2,-42.2 1.4,-14.2 0.7,-28.4 1.3,-42.6 0.6,-14 0.4,-28.1 -1.5,-42 -1.9,-14.1 -0.2,-28.3 -0.9,-42.5 -0.3,-7 -0.8,-13.9 -0.7,-20.9 0.1,-7.2 1.2,-14.3 1.7,-21.5 0.9,-14.4 0.6,-28.8 1.2,-43.1 0.3,-7.1 1.1,-14.2 1.5,-21.3 0.4,-7 0.6,-14 0.6,-21 0,-14.4 -0.5,-28.8 -0.5,-43.2 0,-7.2 0,-14.3 0,-21.5 0,-7 0.2,-14 -0.2,-21 -0.3,-4.8 -1.2,-9.5 -1.5,-14.4 -0.2,-3.1 0.1,-7.5 -1.7,-10.3 -2.1,-3.2 -5.7,-3.4 -8.3,-1 -2.9,2.7 -4.2,6.6 -6.4,9.7 -3,4.3 -6.8,7.1 -12,8.2 -6.5,1.3 -13.3,1.5 -19.9,1.4 -6.7,-0.1 -13.3,-0.5 -19.9,-0.7 -6.8,-0.2 -13.6,0 -20.4,0.1 -14.3,0.3 -28.9,0.6 -43,-1.9 -8.5,-1.5 -18.6,-1.5 -26,-6.3 -1.8,-1.2 -3.4,-2.8 -4,-4.9 -0.6,-2.3 -0.2,-4.8 -0.4,-7.1 -0.3,-4.3 -2.5,-7.7 -7.1,-8 -3.8,-0.2 -8.7,1.8 -10.5,5.4 -2.3,4.7 0.8,10.2 1.9,14.8 0.7,3 0.7,6.2 0.8,9.2 0.2,3.9 0.2,7.8 0.2,11.7 0,7.2 0,14.4 0,21.7 0,14.4 0,28.8 0,43.2 0,7.2 0,14.4 0,21.6 0.2,2.1 3.2,2.1 3.2,0.2 z"
   id="path358" />
	</g>
</g>
<g
   id="g368"
   transform="translate(-556.35084,-49.860856)">
	<g
   id="g366">
		<path
   class="st0"
   d="m 1175.3,797.1 c 1.1,-3.3 1.3,-7.1 1.4,-10.5 0.1,-3.4 0.2,-7.6 -3.4,-9.4 -2.1,-1 -4.5,-0.9 -6.8,-0.7 -2.9,0.2 -5.7,0.4 -8.6,0.4 -6.3,0 -12.6,-0.1 -18.8,-0.9 -3.2,-0.4 -6.4,-1.2 -9.6,-1.8 -3.1,-0.6 -6.3,-1 -9.5,-1.4 -6.5,-0.8 -13,-1.4 -19.4,-2.7 -5.8,-1.2 -11.8,-2.6 -17.4,-4.7 -5.4,-2 -10.1,-5.4 -15.4,-7.6 -3.2,-1.3 -6.7,-1.8 -10.1,-2.4 -3.6,-0.6 -7.2,-1 -10.8,-1.3 -7.5,-0.7 -15,-0.9 -22.5,-0.9 -1.9,0 -1.9,3 0,3 12.8,0 25.8,0.5 38.3,3.2 5.5,1.2 10,4.4 14.9,6.8 5.2,2.6 10.8,3.9 16.3,5.3 6,1.5 12,2.5 18.1,3.3 6.3,0.8 12.7,1.4 19,2.7 11.6,2.5 23.6,2.9 35.4,2 1.9,-0.2 4.9,-0.6 6.3,1 1,1.1 0.9,3 0.9,4.6 0,3.6 -0.2,7.7 -1.4,11.2 -0.4,1.9 2.5,2.7 3.1,0.8 z"
   id="path364" />
	</g>
</g>
<g
   id="g374"
   transform="translate(-556.35084,-49.860856)">
	<g
   id="g372">
		<path
   class="st0"
   d="m 1019.4,748 c 2.6,-3 7.1,-3.6 10.7,-3.8 4.9,-0.3 9.8,0 14.7,0.5 4.4,0.4 8.8,0.7 13.3,0.7 6.9,0 13.9,-0.2 20.8,0.7 7,0.9 13.3,3.6 19.8,6.3 6.5,2.7 13.1,5.3 20.1,6.7 7.5,1.4 15.1,2.3 22.7,3.2 5.9,0.7 11.9,1.8 17.9,1.7 2.8,0 5.6,-0.1 8.3,0.1 2.2,0.2 5,0.4 6.9,1.9 1.9,1.5 2,4.4 2.2,6.6 0.2,2.8 0.1,5.8 1,8.5 0.6,1.8 3.5,1 2.9,-0.8 -1.5,-4.8 0.2,-10.6 -2.7,-14.9 -2.6,-4 -8.5,-4.2 -12.8,-4.3 -2.5,-0.1 -5,0 -7.5,0 -2.8,0 -5.5,-0.4 -8.3,-0.8 -7.8,-1 -15.5,-1.8 -23.3,-3 -3.9,-0.6 -7.7,-1.2 -11.5,-2.3 -3.4,-0.9 -6.7,-2.2 -10,-3.5 -6.7,-2.7 -13.3,-6 -20.4,-7.5 -12.1,-2.6 -24.4,-1 -36.6,-2 -5.7,-0.5 -11.4,-1.1 -17,-0.7 -4.5,0.3 -10,1 -13.2,4.7 -1.4,1.4 0.8,3.5 2,2 z"
   id="path370" />
	</g>
</g>
<g
   id="g380"
   transform="translate(-556.35084,-49.860856)">
	<g
   id="g378">
		<path
   class="st0"
   d="m 785.9,656.5 c 14,-5.5 29.3,-6.1 44.1,-7.4 7.3,-0.6 14.5,-1.3 21.7,-2.7 8.6,-1.7 17,-3.8 25.4,-6.1 9.5,-2.6 18.9,-5.5 28.3,-8.3 1.8,-0.5 1.1,-3.4 -0.8,-2.9 -16.7,4.9 -33.3,10.2 -50.4,13.8 -14.8,3.1 -30,3.4 -45,5.2 -8.2,1 -16.4,2.5 -24.1,5.5 -1.8,0.7 -1,3.6 0.8,2.9 z"
   id="path376" />
	</g>
</g>
<g
   id="g386"
   transform="translate(-556.35084,-49.860856)">
	<g
   id="g384">
		<path
   class="st0"
   d="m 931.4,628.1 c 8.3,-2.9 17.3,-2 25.8,-4.3 7.6,-2.1 14.1,-6.5 21.3,-9.6 1.8,-0.8 0.2,-3.4 -1.5,-2.6 -7.1,3.1 -13.5,7.5 -21,9.4 -8.3,2.2 -17.1,1.4 -25.3,4.2 -1.9,0.7 -1.1,3.6 0.7,2.9 z"
   id="path382" />
	</g>
</g>
<g
   id="g392"
   transform="translate(-556.35084,-49.860856)">
	<g
   id="g390">
		<path
   class="st0"
   d="m 998.4,614.4 c 7.2,0.2 14,-2.1 21.1,-3.1 0.8,-0.1 1.2,-1.1 1,-1.8 -0.2,-0.9 -1,-1.2 -1.8,-1 -6.8,0.9 -13.4,3.2 -20.3,3 -1.9,-0.2 -1.9,2.8 0,2.9 z"
   id="path388" />
	</g>
</g>
<g
   id="g398"
   transform="translate(-556.35084,-49.860856)">
	<g
   id="g396">
		<path
   class="st0"
   d="m 1047.1,603.6 c 8.9,-2.3 18,-3.7 27.2,-4.5 1.9,-0.2 1.9,-3.2 0,-3 -9.4,0.8 -18.8,2.3 -28,4.6 -1.9,0.5 -1.1,3.4 0.8,2.9 z"
   id="path394" />
	</g>
</g>
<g
   id="g404"
   transform="translate(-556.35084,-49.860856)">
	<g
   id="g402">
		<path
   class="st0"
   d="m 1095.7,595.8 c 0.3,-0.2 0.6,-0.3 0.9,-0.4 0.2,-0.1 -0.2,0.1 0.2,-0.1 0.2,-0.1 0.4,-0.2 0.6,-0.2 0.9,-0.3 1.8,-0.6 2.7,-0.8 2.3,-0.6 4.6,-1 6.9,-1.4 6.2,-1.1 12.4,-2 18.5,-2.9 6.6,-1.1 13.3,-2.2 19.8,-3.8 5.5,-1.3 11.1,-2.9 16,-5.7 3.8,-2.2 7.7,-5.7 7.1,-10.5 -0.2,-1.9 -3.2,-1.9 -3,0 0.1,1 0.1,1.5 -0.1,2.2 -0.2,0.8 -0.4,1.1 -1,2 -0.3,0.4 -1,1.2 -1.7,1.8 -0.6,0.6 -1.5,1.1 -2.4,1.7 -4.6,2.8 -10,4.2 -15.2,5.5 -12.4,3.1 -25.2,4.5 -37.7,6.6 -2.6,0.4 -5.3,0.9 -7.8,1.6 -1.8,0.5 -3.7,1 -5.4,1.9 -1.6,0.9 -0.1,3.5 1.6,2.5 z"
   id="path400" />
	</g>
</g>
<g
   id="g410"
   transform="translate(-556.35084,-49.860856)">
	<g
   id="g408">
		<path
   class="st0"
   d="m 1172.3,504.9 c -13.2,-0.2 -26.3,0.9 -39.4,1 -6.2,0 -12.5,0 -18.6,-1.1 -5.9,-1 -11.8,-2.6 -17.6,-3.9 -6.6,-1.4 -13.3,-2.6 -20.1,-2.1 -1.9,0.1 -1.9,3.1 0,3 12.1,-0.8 23.8,3.5 35.6,5.7 12.4,2.3 25.3,1.4 37.8,0.9 7.4,-0.3 14.9,-0.6 22.3,-0.5 2,0.1 2,-2.9 0,-3 z"
   id="path406" />
	</g>
</g>
<g
   id="g416"
   transform="translate(-556.35084,-49.860856)">
	<g
   id="g414">
		<path
   class="st0"
   d="m 1135.6,492.6 c 9.7,0 19.4,0 29.1,0 1.9,0 1.9,-3 0,-3 -9.7,0 -19.4,0 -29.1,0 -2,0 -2,3 0,3 z"
   id="path412" />
	</g>
</g>
<g
   id="g422"
   transform="translate(-556.35084,-49.860856)">
	<g
   id="g420">
		<path
   class="st0"
   d="m 1025.3,422.9 c 15.1,0 30.2,-0.6 45.2,-0.3 14.7,0.3 29.3,2 43.8,3.8 7.3,0.9 14.7,1.8 22.1,2.4 3.7,0.3 7.4,0.6 11.1,0.7 3.1,0.1 6.3,0.4 9.4,0.2 3.2,-0.2 6.4,-0.8 9.7,-1.1 2.8,-0.2 7,-0.6 9.3,1.3 2,1.7 0.9,5.1 -1.2,6.6 -3,2.1 -7.1,2.4 -10.6,2.6 -3.7,0.2 -7.3,0 -11,-0.1 -6.5,-0.2 -13,-0.2 -19.5,-0.5 -7.4,-0.4 -14.8,-0.9 -22.2,-1.2 -7.3,-0.4 -14.6,-0.5 -21.9,-0.6 -14.4,-0.2 -28.6,-2.8 -43,-3 -5.3,-0.1 -10.5,0 -15.8,-0.5 -3,-0.3 -6,-0.6 -8.8,-1.6 -0.9,-0.3 -1.9,-0.8 -2.4,-1.2 -0.1,-0.1 -0.5,-0.5 -0.2,-0.2 -0.1,-0.1 -0.1,-0.2 -0.2,-0.3 -0.2,-0.3 0.1,0.3 0,0 -0.2,-0.3 -0.1,-0.2 0,-0.6 0.1,-0.4 -0.1,0.1 0.1,-0.3 0.1,-0.2 0.3,-0.4 0.4,-0.7 0.2,-0.3 0.9,-1 1.3,-1.3 1.4,-1.3 -0.7,-3.4 -2.1,-2.1 -1.8,1.6 -3.7,4.2 -2.2,6.6 1.3,2.2 4.2,3 6.5,3.5 6.4,1.5 13.2,1.6 19.7,1.6 11,0 22,1.4 33,2.3 7.8,0.6 15.6,0.7 23.4,0.8 7.7,0.2 15.3,0.6 23,1.1 12.2,0.7 24.4,1.1 36.7,1.3 4.2,0.1 8.6,0 12.7,-1.1 3.4,-0.9 7.1,-2.9 8,-6.6 0.9,-3.6 -0.7,-6.8 -4.2,-8.1 -3.5,-1.3 -7.7,-0.9 -11.3,-0.5 -1.8,0.2 -3.6,0.4 -5.3,0.7 -2.1,0.2 -4.3,0.2 -6.4,0.2 -7.7,-0.2 -15.5,-0.8 -23.2,-1.6 -15.2,-1.6 -30.3,-4 -45.5,-5 -15.7,-1.1 -31.4,-0.6 -47.1,-0.3 -3.8,0.1 -7.5,0.1 -11.3,0.1 -2,0 -2,3 0,3 z"
   id="path418" />
	</g>
</g>
<g
   id="g428"
   transform="translate(-556.35084,-49.860856)">
	<g
   id="g426">
		<path
   class="st0"
   d="m 1017.6,368.5 c 14.4,0 28.5,2.9 42.7,5.1 7,1.1 14.1,2 21.2,2.4 7.7,0.4 15.4,0.2 23,0.2 15.7,0 31.4,0 47,0 6.5,0 13,0.2 19.4,-1 2.8,-0.5 6.5,-1.4 7.9,-4.1 1.8,-3.4 -1.6,-6.9 -3.9,-9 -1.4,-1.3 -3.6,0.8 -2.1,2.1 1.2,1.1 2.6,2.3 3.3,3.8 0.1,0.3 0.3,0.9 0.3,1 0,0.4 0.1,-0.1 0,0.4 0,0.1 -0.1,0.3 0,0 -0.1,0.1 -0.1,0.3 -0.2,0.4 0,0.1 0,0 -0.2,0.3 -0.2,0.2 -0.4,0.3 -0.4,0.4 -0.4,0.3 -1.1,0.6 -1.4,0.7 -1.3,0.5 -2.7,0.9 -4.1,1.1 -6,1.1 -12.1,0.8 -18.1,0.8 -15.1,0 -30.2,0 -45.3,0 -7.4,0 -14.8,0.2 -22.2,0 -7,-0.2 -14.1,-1 -21,-2 -15.2,-2.3 -30.3,-5.5 -45.7,-5.6 -2.1,0 -2.1,3 -0.2,3 z"
   id="path424" />
	</g>
</g>
<g
   id="g434"
   transform="translate(-556.35084,-49.860856)">
	<g
   id="g432">
		<path
   class="st0"
   d="m 1174.3,358.1 c 3.2,3.7 4.3,8.9 4.8,13.7 0.6,5.8 0.3,11.7 -0.1,17.5 -0.4,5.2 -1.1,10.4 -1.6,15.6 -0.7,8 -2.6,15.9 -3.3,23.9 -0.8,9.1 1.9,17.9 2,27 0,1.9 3,1.9 3,0 -0.1,-8.2 -2.5,-16.2 -2.2,-24.4 0.3,-8.5 2.5,-16.9 3.3,-25.4 1,-11.2 2.9,-22.4 1.9,-33.7 -0.5,-5.8 -1.8,-11.9 -5.7,-16.4 -1.2,-1.3 -3.3,0.8 -2.1,2.2 z"
   id="path430" />
	</g>
</g>
<g
   id="g440"
   transform="translate(-556.35084,-49.860856)">
	<g
   id="g438">
		<path
   class="st0"
   d="m 1173.9,479.2 c -1.2,3.3 -1.5,6.9 -1.7,10.3 -0.3,3.6 -0.3,7.2 -0.7,10.7 -0.9,9.3 -2.4,18.6 -2.9,28 -0.5,9.4 -0.3,18.8 -0.2,28.2 0.1,9.1 -0.2,18.2 -0.2,27.4 -0.1,8.7 0.4,17.5 2.7,25.9 1.5,5.4 3.2,11 3.2,16.7 0,1.8 -0.1,4.5 -1.7,5.6 -1.7,1.3 -4.2,1.5 -6.2,1.8 -5.6,0.6 -11.2,0.2 -16.8,-0.1 -3.4,-0.2 -6.8,-0.6 -10.2,-1.2 -4.4,-0.9 -8.6,-2.1 -12.9,-3.4 -4.2,-1.3 -8.2,-2.5 -12.5,-3 -4.4,-0.5 -8.8,-0.5 -13.1,-1 -2.1,-0.3 -4.1,-0.7 -6.1,-1.3 -1.8,-0.6 -2.6,2.3 -0.8,2.9 8.5,2.8 17.7,1.2 26.2,3.7 8.6,2.5 17.2,5.5 26.1,6.3 5.4,0.4 10.8,0.8 16.2,0.6 2.8,-0.1 5.7,-0.3 8.4,-1 2.1,-0.6 4.1,-1.6 5.2,-3.5 1.3,-2.4 1.3,-5.3 1.1,-8 -0.2,-3.1 -0.8,-6.3 -1.6,-9.3 -0.7,-2.7 -1.5,-5.4 -2.2,-8.2 -1.1,-4.4 -1.6,-9 -1.9,-13.5 -0.5,-9.2 0.1,-18.3 0.1,-27.5 0,-9.6 -0.3,-19.1 -0.2,-28.7 0.1,-9.6 1.1,-19 2.2,-28.5 0.5,-4.3 1,-8.6 1.3,-13 0.2,-3.7 0.3,-7.5 0.8,-11.1 0.2,-1.6 0.6,-3.3 1.2,-4.8 0.8,-2 -2.1,-2.8 -2.8,-1 z"
   id="path436" />
	</g>
</g>
<g
   id="g446"
   transform="translate(-556.35084,-49.860856)">
	<g
   id="g444">
		<path
   class="st0"
   d="m 1082.7,620.6 c -6.3,0 -12.7,0.2 -18.8,-1.5 -5.5,-1.5 -10.6,-4.6 -16.5,-4.6 -1.9,0 -1.9,3 0,3 5.8,0 10.9,3.4 16.5,4.7 6.1,1.5 12.5,1.4 18.8,1.4 1.9,0 1.9,-3 0,-3 z"
   id="path442" />
	</g>
</g>
<g
   id="g452"
   transform="translate(-556.35084,-49.860856)">
	<g
   id="g450">
		<path
   class="st0"
   d="m 1038.6,626.6 c 8.2,2.3 16.8,0.2 25,2.6 3.5,1 7,2.2 10.5,3 3.8,0.9 7.7,1.3 11.6,1.3 1.9,0 1.9,-3 0,-3 -3.8,0 -7.5,-0.4 -11.2,-1.3 -3.6,-0.9 -7,-2 -10.6,-3 -8,-2.3 -16.6,-0.3 -24.6,-2.5 -1.7,-0.5 -2.5,2.4 -0.7,2.9 z"
   id="path448" />
	</g>
</g>
<g
   id="g458"
   transform="translate(-556.35084,-49.860856)">
	<g
   id="g456">
		<path
   class="st0"
   d="m 1101.8,638 c 3.6,-1.9 7.6,-2.7 11.6,-3.2 4.5,-0.5 9,-0.5 13.5,-0.2 4.2,0.3 8.5,0.9 12.5,2.4 4.7,1.8 9.1,4.4 14,5.9 5.7,1.7 11.5,0.7 17.3,0.7 1.9,0 1.9,-3 0,-3 -5.2,0 -10.6,1 -15.7,-0.3 -5,-1.3 -9.6,-4.1 -14.4,-6 -4.1,-1.6 -8.5,-2.2 -12.8,-2.6 -4.5,-0.4 -9.1,-0.4 -13.6,0 -4.8,0.5 -9.6,1.4 -13.9,3.7 -1.7,0.9 -0.2,3.5 1.5,2.6 z"
   id="path454" />
	</g>
</g>
<g
   id="g464"
   transform="translate(-556.35084,-49.860856)">
	<g
   id="g462">
		<path
   class="st0"
   d="m 1175.4,698.2 c -6.6,3.9 -14.4,2.1 -21.3,-0.1 -7,-2.2 -14.2,-5.3 -21.6,-4.7 -1.9,0.1 -1.9,3.1 0,3 5.9,-0.4 11.7,1.7 17.2,3.5 5.7,1.8 11.6,3.8 17.6,3.7 3.4,-0.1 6.7,-1 9.6,-2.7 1.7,-1.1 0.2,-3.7 -1.5,-2.7 z"
   id="path460" />
	</g>
</g>
<g
   id="g470"
   transform="translate(-556.35084,-49.860856)">
	<g
   id="g468">
		<path
   class="st0"
   d="m 1170,709.7 c -7.2,4.2 -16.1,2.4 -23.7,0.1 -4,-1.2 -7.9,-2.7 -11.8,-4.1 -4.8,-1.6 -9.6,-3.1 -14.4,-4.6 -5.4,-1.6 -10.9,-3.1 -16.4,-4.6 -1.9,-0.5 -2.7,2.4 -0.8,2.9 10,2.7 20,5.5 29.9,8.9 8.2,2.8 16.4,6.3 25.2,6.8 4.7,0.3 9.4,-0.4 13.6,-2.8 1.6,-1 0.1,-3.6 -1.6,-2.6 z"
   id="path466" />
	</g>
</g>
<g
   id="g476"
   transform="translate(-556.35084,-49.860856)">
	<g
   id="g474">
		<path
   class="st0"
   d="m 1094.2,687.2 c -18.3,0 -36.1,-5.3 -54.4,-5.4 -1.9,0 -1.9,3 0,3 18.3,0 36.1,5.3 54.4,5.4 1.9,0 1.9,-3 0,-3 z"
   id="path472" />
	</g>
</g>
<g
   id="g482"
   transform="translate(-556.35084,-49.860856)">
	<g
   id="g480">
		<path
   class="st0"
   d="m 1076.6,694.1 c -12.6,0 -24.9,-3.5 -37.5,-3.8 -1.9,-0.1 -1.9,2.9 0,3 12.6,0.3 24.9,3.8 37.5,3.8 1.9,0 1.9,-3 0,-3 z"
   id="path478" />
	</g>
</g>
<g
   id="g488"
   transform="translate(-556.35084,-49.860856)">
	<g
   id="g486">
		<path
   class="st0"
   d="m 1026.1,367 c 0.1,13.7 5.3,26.8 4.7,40.6 -0.2,3.7 -0.8,7.4 -2.2,10.8 -0.8,1.8 1.8,3.3 2.6,1.5 2.7,-6.3 3,-13.3 2.4,-20.1 -0.7,-7.3 -2.2,-14.5 -3.4,-21.7 -0.6,-3.7 -1.1,-7.4 -1.1,-11.1 -0.1,-1.9 -3.1,-1.9 -3,0 z"
   id="path484" />
	</g>
</g>
<g
   id="g494"
   transform="translate(-556.35084,-49.860856)">
	<g
   id="g492">
		<path
   class="st0"
   d="m 1024.5,434.4 c -1.1,8.7 0.7,17.4 0.8,26 0,1.9 3,1.9 3,0 0,-8.7 -1.9,-17.4 -0.8,-26 0.3,-1.9 -2.7,-1.8 -3,0 z"
   id="path490" />
	</g>
</g>
<g
   id="g500"
   transform="translate(-556.35084,-49.860856)">
	<g
   id="g498">
		<path
   class="st0"
   d="m 1172.8,664.7 c -8.5,7.8 -21.9,6.4 -32.5,7.8 -13.4,1.8 -25.7,9.2 -37.8,14.7 -13.1,6 -27,11.5 -41.2,14 -7.4,1.3 -14.9,2.2 -22.3,3.9 -7.3,1.6 -14.6,3.8 -21.6,6.5 -28.4,11.2 -56.2,23.9 -86,31.3 -14.9,3.8 -30,6.6 -45,10.2 -13.9,3.3 -27.4,8 -41.3,11.6 -12.8,3.3 -25.7,6.1 -38.2,10.2 -11.1,3.7 -23.1,8.5 -31.9,16.4 -3.5,3.2 -7.1,7.8 -5.9,12.9 1.3,5.1 6.2,6.6 10.9,6.5 13,-0.3 25.3,-7 36.6,-12.8 6.4,-3.3 12.8,-6.4 19.5,-8.8 6.7,-2.4 13.5,-4.3 20.4,-6 13.8,-3.4 27.8,-6.1 41.3,-10.7 13.8,-4.6 26.5,-11.8 39.8,-17.7 14.2,-6.3 29.3,-9.6 44.2,-13.5 14.6,-3.8 28.7,-8.6 42.6,-14.5 13.9,-5.9 27.6,-12.2 41.8,-17.6 14.5,-5.5 29.4,-9.8 44.4,-13.7 15.1,-4 30.4,-7.4 45.8,-10 6.9,-1.2 14,-0.9 20.7,-3.1 1.8,-0.6 1,-3.5 -0.8,-2.9 -6.8,2.2 -14.1,1.9 -21.1,3.2 -7.6,1.3 -15.1,2.8 -22.6,4.5 -15,3.3 -30,7.2 -44.7,11.6 -14.1,4.3 -27.9,9.4 -41.5,15.2 -13.7,5.9 -27.2,12.1 -41.3,17.1 -14.3,5.1 -29,8.3 -43.6,12.3 -7.2,2 -14.4,4.1 -21.3,7 -6.6,2.7 -12.9,5.9 -19.3,9 -6.6,3.2 -13.3,6.4 -20.2,8.9 -6.5,2.4 -13.2,4.3 -20,6 -13.6,3.4 -27.3,6.1 -40.7,10.3 -6.5,2.1 -12.8,4.6 -18.9,7.6 -6.4,3.1 -12.6,6.5 -19.1,9.4 -5.9,2.6 -11.9,4.8 -18.3,5.7 -4.4,0.6 -12.2,0.9 -11.9,-5.5 0.2,-5 5.6,-9.1 9.3,-11.6 5.2,-3.6 10.9,-6.4 16.7,-8.9 12.1,-5 24.8,-8.1 37.4,-11.2 6.3,-1.5 12.5,-3.1 18.7,-4.8 6.6,-1.9 13.1,-4.1 19.7,-6 14.6,-4 29.4,-6.9 44.2,-10.2 14.8,-3.3 29.4,-7.3 43.7,-12.3 14.2,-5 28,-10.7 41.9,-16.4 6.8,-2.8 13.6,-5.8 20.6,-8.2 7,-2.4 14.2,-4.2 21.5,-5.6 7.2,-1.4 14.6,-2.1 21.7,-3.8 6.9,-1.6 13.5,-3.9 20.1,-6.4 6.7,-2.6 13.3,-5.3 19.8,-8.3 6.7,-3.1 13.2,-6.4 20.1,-9.1 5.7,-2.2 11.3,-3.6 17.4,-4.1 5.5,-0.5 11,-0.7 16.5,-1.8 5,-1 9.8,-2.9 13.6,-6.4 1.6,-1.1 -0.5,-3.2 -1.9,-1.9 z"
   id="path496" />
	</g>
</g>
<g
   id="g506"
   transform="translate(-556.35084,-49.860856)">
	<g
   id="g504">
		<path
   class="st0"
   d="m 1173.2,645.5 c 2.5,6.3 3.7,12.7 3.8,19.5 0,1.9 3,1.9 3,0 0,-7 -1.3,-13.8 -3.9,-20.3 -0.3,-0.8 -1,-1.3 -1.8,-1 -0.8,0.1 -1.4,1 -1.1,1.8 z"
   id="path502" />
	</g>
</g>
<g
   id="g512"
   transform="translate(-556.35084,-49.860856)">
	<g
   id="g510">
		<path
   class="st0"
   d="m 1172.4,685.3 c -1.6,4.8 -0.8,10 -0.8,15 0,1.9 3,1.9 3,0 0,-4.7 -0.8,-9.6 0.7,-14.2 0.3,-0.8 -0.3,-1.6 -1,-1.8 -0.9,-0.3 -1.6,0.2 -1.9,1 z"
   id="path508" />
	</g>
</g>
<g
   id="g518"
   transform="translate(-556.35084,-49.860856)">
	<g
   id="g516">
		<path
   class="st0"
   d="m 1170.8,719.4 c 0.6,0.1 1.5,0.4 2.1,1 0.7,0.7 1.3,1.6 1.7,2.6 1.2,2.7 1.5,6 1.7,9 0.4,7.1 -0.4,14.5 -2.2,21.4 -0.4,1.5 -0.9,3.1 -1.4,4.5 -0.1,0.4 -0.4,1 -0.7,1.5 -0.1,0.3 -0.3,0.5 -0.4,0.7 -0.1,0.1 -0.1,0.2 -0.2,0.3 -0.2,0.2 0.2,-0.2 -0.1,0.1 -1.3,1.5 0.9,3.6 2.1,2.1 1.7,-2 2.6,-4.7 3.3,-7.2 1.1,-3.7 1.7,-7.5 2.1,-11.3 0.5,-4 0.7,-8 0.5,-12 -0.2,-3.4 -0.6,-6.9 -1.9,-10.1 -1.2,-2.9 -3.3,-5.4 -6.6,-5.6 -1.9,-0.2 -1.9,2.8 0,3 z"
   id="path514" />
	</g>
</g>
<g
   id="g524"
   transform="translate(-556.35084,-49.860856)">
	<g
   id="g522">
		<path
   class="st0"
   d="m 1024.5,740.1 c -0.2,0 -0.4,0 -0.5,0 -0.2,0 0,0 -0.3,-0.1 -0.1,0 -0.3,-0.1 -0.4,-0.1 -0.1,0 -0.2,-0.1 -0.3,-0.1 -0.2,-0.1 0.2,0.1 0,0 -0.1,-0.1 -0.2,-0.1 -0.3,-0.2 -0.2,-0.1 0.2,0.2 0,0 l -0.1,-0.1 c -0.1,-0.1 -0.2,-0.2 -0.2,-0.2 0.2,0.2 0,0 -0.1,-0.1 -0.1,-0.2 0.1,0.2 0,0 0,-0.1 -0.1,-0.2 -0.1,-0.4 0,-0.1 -0.1,-0.4 0,-0.2 0,0.2 0,-0.3 0,-0.3 0,-0.3 0,-0.6 0,-0.8 0,-0.1 0,-0.4 0,-0.1 0,-0.2 0.1,-0.4 0.1,-0.6 0.5,-2.7 1.7,-5.2 2.5,-7.8 0.4,-1.2 0.7,-2.5 0.4,-3.7 -0.5,-1.9 -3.3,-1.1 -2.9,0.8 0.1,0.3 0,-0.1 0,0 0,0.1 0,0.2 0,0.3 0,0.1 0,0.2 0,0.3 0,0.2 0,-0.1 0,-0.1 0,0.1 0,0.2 0,0.3 -0.1,0.6 -0.3,1.2 -0.5,1.8 -0.5,1.4 -1,2.8 -1.5,4.1 -0.9,2.5 -2,5.9 -0.5,8.3 1,1.6 2.9,2.1 4.7,2.2 1.9,-0.1 1.9,-3.1 0,-3.2 z"
   id="path520" />
	</g>
</g>
<g
   id="g530"
   transform="translate(-556.35084,-49.860856)">
	<g
   id="g528">
		<path
   class="st0"
   d="m 1012.3,614.4 c 0,24.1 1.9,48.1 2.7,72.1 0.2,6.9 0.4,13.7 0.4,20.6 0,1.9 3,1.9 3,0 0,-24 -1.9,-48 -2.7,-72 -0.2,-6.9 -0.4,-13.8 -0.4,-20.7 0,-1.9 -3,-1.9 -3,0 z"
   id="path526" />
	</g>
</g>
<g
   id="g536"
   transform="translate(-556.35084,-49.860856)">
	<g
   id="g534">
		<path
   class="st0"
   d="m 1011.6,736.6 c -0.9,5.9 -2.6,11.6 -3.1,17.5 -0.5,6.1 1,12 4,17.3 0.9,1.7 3.5,0.2 2.6,-1.5 -2.8,-5 -4.1,-10.4 -3.6,-16.2 0.5,-5.5 2.1,-10.9 3,-16.4 0.2,-1.8 -2.6,-2.6 -2.9,-0.7 z"
   id="path532" />
	</g>
</g>
<g
   id="g542"
   transform="translate(-556.35084,-49.860856)">
	<g
   id="g540">
		<path
   class="st0"
   d="m 1012.3,459.3 c -0.2,1.4 -0.2,2.7 0.1,4 0.3,1.3 1,2.5 1.8,3.5 0.2,0.3 0.7,0.4 1.1,0.4 0.4,0 0.8,-0.2 1.1,-0.4 0.3,-0.3 0.5,-0.7 0.4,-1.1 0,-0.4 -0.2,-0.7 -0.4,-1.1 0.3,0.3 0,0 -0.1,-0.1 -0.1,-0.1 -0.2,-0.2 -0.2,-0.3 -0.1,-0.2 -0.3,-0.5 -0.4,-0.7 0,-0.1 -0.1,-0.1 -0.1,-0.2 -0.1,-0.1 -0.1,-0.1 0,0.1 l -0.1,-0.3 c -0.1,-0.2 -0.2,-0.5 -0.2,-0.7 0,-0.1 -0.1,-0.3 -0.1,-0.4 0,-0.1 -0.1,-0.5 0,-0.1 0,-0.2 0,-0.5 -0.1,-0.7 0,-0.3 0,-0.5 0,-0.8 0,-0.1 0,-0.3 0,-0.4 0,-0.2 0,-0.1 0,0.1 0,-0.1 0,-0.1 0,-0.2 0.1,-0.4 0.1,-0.8 -0.2,-1.2 -0.2,-0.3 -0.5,-0.6 -0.9,-0.7 -0.6,0.1 -1.5,0.5 -1.7,1.3 z"
   id="path538" />
	</g>
</g>
<g
   id="g548"
   transform="translate(-556.35084,-49.860856)">
	<g
   id="g546">
		<path
   class="st0"
   d="m 1026.1,457.8 c -0.9,2.6 -1.2,5.4 -0.8,8.1 0.1,0.4 0.1,0.8 0.4,1.1 0.3,0.3 0.7,0.5 1.1,0.4 0.7,0 1.6,-0.7 1.5,-1.5 -0.2,-1.3 -0.2,-2.6 -0.1,-3.9 0,-0.2 0,-0.3 0.1,-0.5 0,0.3 0,-0.1 0,-0.2 0.1,-0.3 0.1,-0.6 0.2,-0.9 0.1,-0.6 0.3,-1.2 0.5,-1.8 0.3,-0.7 -0.3,-1.7 -1,-1.8 -0.9,-0.2 -1.6,0.2 -1.9,1 z"
   id="path544" />
	</g>
</g>
<g
   id="g554"
   transform="translate(-556.35084,-49.860856)">
	<g
   id="g552">
		<path
   class="st0"
   d="m 1014.6,498.8 c 1.9,14.2 3.1,28.5 3.1,42.9 0,1.9 3,1.9 3,0 0,-14.4 -1.2,-28.7 -3.1,-42.9 -0.1,-0.8 -0.6,-1.5 -1.5,-1.5 -0.8,0 -1.6,0.7 -1.5,1.5 z"
   id="path550" />
	</g>
</g>
</svg>
