<svg xmlns="http://www.w3.org/2000/svg" width="1408" height="1536" fill="none" viewBox="0 0 1408 1536">
  <path fill="#000" d="M512 608v576c0 9.33-3 17-9 23s-13.667 9-23 9h-64c-9.333 0-17-3-23-9s-9-13.67-9-23V608c0-9.333 3-17 9-23s13.667-9 23-9h64c9.333 0 17 3 23 9s9 13.667 9 23Zm256 0v576c0 9.33-3 17-9 23s-13.667 9-23 9h-64c-9.333 0-17-3-23-9s-9-13.67-9-23V608c0-9.333 3-17 9-23s13.667-9 23-9h64c9.333 0 17 3 23 9s9 13.667 9 23Zm256 0v576c0 9.33-3 17-9 23s-13.67 9-23 9h-64c-9.333 0-17-3-23-9s-9-13.67-9-23V608c0-9.333 3-17 9-23s13.667-9 23-9h64c9.33 0 17 3 23 9s9 13.667 9 23Zm128 724V384H256v948c0 14.67 2.333 28.17 7 40.5 4.667 12.33 9.5 21.33 14.5 27 5 5.67 8.5 8.5 10.5 8.5h832c2 0 5.5-2.83 10.5-8.5s9.83-14.67 14.5-27 7-25.83 7-40.5ZM480 256h448l-48-117c-4.667-6-10.333-9.667-17-11H546c-6.667 1.333-12.333 5-17 11l-49 117Zm928 32v64c0 9.333-3 17-9 23s-13.67 9-23 9h-96v948c0 55.33-15.67 103.17-47 143.5s-69 60.5-113 60.5H288c-44 0-81.667-19.5-113-58.5s-47-86.17-47-141.5V384H32c-9.333 0-17-3-23-9s-9-13.667-9-23v-64c0-9.333 3-17 9-23s13.667-9 23-9h309l70-167c10-24.667 28-45.667 54-63s52.333-26 79-26h320c26.667 0 53 8.667 79 26s44 38.333 54 63l70 167h309c9.33 0 17 3 23 9s9 13.667 9 23Z"/>
</svg>
